<svg width="321" height="393" viewBox="0 0 321 393" fill="none" xmlns="http://www.w3.org/2000/svg">
<g clip-path="url(#clip0_112_2934)">
<rect width="321" height="393" rx="20" fill="#00D47F"/>
<path d="M36.306 57L34.787 52.629H25.549L24.03 57H20.155L28.029 35.3H32.307L40.15 57H36.306ZM26.727 49.281H33.609L30.168 39.485L26.727 49.281ZM42.4835 35.3H46.0485V57H42.4835V35.3ZM50.3848 49.188V45.964H61.8548V49.188H50.3848ZM74.1856 35.3C76.2316 35.3 77.9366 35.982 79.3006 37.346C80.6852 38.71 81.3776 40.4047 81.3776 42.43C81.3776 44.4347 80.6852 46.1293 79.3006 47.514C77.9366 48.878 76.2316 49.56 74.1856 49.56H69.7526V57H66.1876V35.3H74.1856ZM74.1856 46.212C75.2396 46.212 76.1076 45.8607 76.7896 45.158C77.4716 44.4347 77.8126 43.5253 77.8126 42.43C77.8126 41.3347 77.4716 40.4357 76.7896 39.733C76.1076 39.0097 75.2396 38.648 74.1856 38.648H69.7526V46.212H74.1856ZM90.4819 57.403C88.2086 57.403 86.2762 56.6177 84.6849 55.047C83.0936 53.4763 82.2979 51.544 82.2979 49.25C82.2979 46.956 83.0936 45.0237 84.6849 43.453C86.2762 41.8823 88.2086 41.097 90.4819 41.097C92.7759 41.097 94.7082 41.8823 96.2789 43.453C97.8702 45.0237 98.6659 46.956 98.6659 49.25C98.6659 51.544 97.8702 53.4763 96.2789 55.047C94.7082 56.6177 92.7759 57.403 90.4819 57.403ZM87.0409 52.753C87.9709 53.683 89.1179 54.148 90.4819 54.148C91.8459 54.148 92.9929 53.683 93.9229 52.753C94.8529 51.823 95.3179 50.6553 95.3179 49.25C95.3179 47.8447 94.8529 46.677 93.9229 45.747C92.9929 44.817 91.8459 44.352 90.4819 44.352C89.1179 44.352 87.9709 44.817 87.0409 45.747C86.1109 46.677 85.6459 47.8447 85.6459 49.25C85.6459 50.6553 86.1109 51.823 87.0409 52.753ZM118.944 41.5H122.478L117.611 57H114.325L111.101 46.553L107.846 57H104.56L99.6928 41.5H103.227L106.234 52.195L109.489 41.5H112.682L115.906 52.195L118.944 41.5ZM126.973 50.676C127.221 51.854 127.789 52.7633 128.678 53.404C129.566 54.024 130.651 54.334 131.933 54.334C133.71 54.334 135.043 53.6933 135.932 52.412L138.691 54.024C137.161 56.2767 134.898 57.403 131.902 57.403C129.38 57.403 127.345 56.6383 125.795 55.109C124.245 53.559 123.47 51.606 123.47 49.25C123.47 46.9353 124.234 45.003 125.764 43.453C127.293 41.8823 129.256 41.097 131.654 41.097C133.927 41.097 135.787 41.8927 137.234 43.484C138.701 45.0753 139.435 47.0077 139.435 49.281C139.435 49.6323 139.393 50.0973 139.311 50.676H126.973ZM126.942 47.948H136.056C135.828 46.6873 135.301 45.7367 134.475 45.096C133.669 44.4553 132.718 44.135 131.623 44.135C130.383 44.135 129.349 44.476 128.523 45.158C127.696 45.84 127.169 46.77 126.942 47.948ZM145.729 44.104C146.576 42.182 148.167 41.221 150.503 41.221V44.848C149.221 44.7653 148.105 45.0753 147.155 45.778C146.204 46.46 145.729 47.5967 145.729 49.188V57H142.381V41.5H145.729V44.104ZM154.885 50.676C155.133 51.854 155.701 52.7633 156.59 53.404C157.479 54.024 158.564 54.334 159.845 54.334C161.622 54.334 162.955 53.6933 163.844 52.412L166.603 54.024C165.074 56.2767 162.811 57.403 159.814 57.403C157.293 57.403 155.257 56.6383 153.707 55.109C152.157 53.559 151.382 51.606 151.382 49.25C151.382 46.9353 152.147 45.003 153.676 43.453C155.205 41.8823 157.169 41.097 159.566 41.097C161.839 41.097 163.699 41.8927 165.146 43.484C166.613 45.0753 167.347 47.0077 167.347 49.281C167.347 49.6323 167.306 50.0973 167.223 50.676H154.885ZM154.854 47.948H163.968C163.741 46.6873 163.214 45.7367 162.387 45.096C161.581 44.4553 160.63 44.135 159.535 44.135C158.295 44.135 157.262 44.476 156.435 45.158C155.608 45.84 155.081 46.77 154.854 47.948ZM182.478 35.3H185.826V57H182.478V54.768C181.217 56.5247 179.409 57.403 177.053 57.403C174.924 57.403 173.106 56.6177 171.597 55.047C170.088 53.4557 169.334 51.5233 169.334 49.25C169.334 46.956 170.088 45.0237 171.597 43.453C173.106 41.8823 174.924 41.097 177.053 41.097C179.409 41.097 181.217 41.965 182.478 43.701V35.3ZM174.077 52.815C175.007 53.745 176.175 54.21 177.58 54.21C178.985 54.21 180.153 53.745 181.083 52.815C182.013 51.8643 182.478 50.676 182.478 49.25C182.478 47.824 182.013 46.646 181.083 45.716C180.153 44.7653 178.985 44.29 177.58 44.29C176.175 44.29 175.007 44.7653 174.077 45.716C173.147 46.646 172.682 47.824 172.682 49.25C172.682 50.676 173.147 51.8643 174.077 52.815ZM210.064 57L205.476 49.095H201.26V57H197.695V35.3H206.375C208.318 35.3 209.961 35.982 211.304 37.346C212.668 38.6893 213.35 40.3323 213.35 42.275C213.35 43.6597 212.947 44.9307 212.141 46.088C211.356 47.2247 210.323 48.0513 209.041 48.568L213.97 57H210.064ZM201.26 38.648V45.902H206.375C207.326 45.902 208.132 45.5507 208.793 44.848C209.455 44.1453 209.785 43.2877 209.785 42.275C209.785 41.2623 209.455 40.4047 208.793 39.702C208.132 38.9993 207.326 38.648 206.375 38.648H201.26ZM218.308 50.676C218.556 51.854 219.124 52.7633 220.013 53.404C220.901 54.024 221.986 54.334 223.268 54.334C225.045 54.334 226.378 53.6933 227.267 52.412L230.026 54.024C228.496 56.2767 226.233 57.403 223.237 57.403C220.715 57.403 218.68 56.6383 217.13 55.109C215.58 53.559 214.805 51.606 214.805 49.25C214.805 46.9353 215.569 45.003 217.099 43.453C218.628 41.8823 220.591 41.097 222.989 41.097C225.262 41.097 227.122 41.8927 228.569 43.484C230.036 45.0753 230.77 47.0077 230.77 49.281C230.77 49.6323 230.728 50.0973 230.646 50.676H218.308ZM218.277 47.948H227.391C227.163 46.6873 226.636 45.7367 225.81 45.096C225.004 44.4553 224.053 44.135 222.958 44.135C221.718 44.135 220.684 44.476 219.858 45.158C219.031 45.84 218.504 46.77 218.277 47.948ZM242.489 41.097C244.617 41.097 246.436 41.8927 247.945 43.484C249.453 45.0547 250.208 46.9767 250.208 49.25C250.208 51.544 249.453 53.4763 247.945 55.047C246.436 56.6177 244.617 57.403 242.489 57.403C240.133 57.403 238.324 56.535 237.064 54.799V63.2H233.716V41.5H237.064V43.732C238.324 41.9753 240.133 41.097 242.489 41.097ZM238.459 52.815C239.389 53.745 240.556 54.21 241.962 54.21C243.367 54.21 244.535 53.745 245.465 52.815C246.395 51.8643 246.86 50.676 246.86 49.25C246.86 47.824 246.395 46.646 245.465 45.716C244.535 44.7653 243.367 44.29 241.962 44.29C240.556 44.29 239.389 44.7653 238.459 45.716C237.529 46.646 237.064 47.824 237.064 49.25C237.064 50.676 237.529 51.8643 238.459 52.815ZM260.558 57.403C258.285 57.403 256.352 56.6177 254.761 55.047C253.17 53.4763 252.374 51.544 252.374 49.25C252.374 46.956 253.17 45.0237 254.761 43.453C256.352 41.8823 258.285 41.097 260.558 41.097C262.852 41.097 264.784 41.8823 266.355 43.453C267.946 45.0237 268.742 46.956 268.742 49.25C268.742 51.544 267.946 53.4763 266.355 55.047C264.784 56.6177 262.852 57.403 260.558 57.403ZM257.117 52.753C258.047 53.683 259.194 54.148 260.558 54.148C261.922 54.148 263.069 53.683 263.999 52.753C264.929 51.823 265.394 50.6553 265.394 49.25C265.394 47.8447 264.929 46.677 263.999 45.747C263.069 44.817 261.922 44.352 260.558 44.352C259.194 44.352 258.047 44.817 257.117 45.747C256.187 46.677 255.722 47.8447 255.722 49.25C255.722 50.6553 256.187 51.823 257.117 52.753ZM275.117 44.104C275.965 42.182 277.556 41.221 279.891 41.221V44.848C278.61 44.7653 277.494 45.0753 276.543 45.778C275.593 46.46 275.117 47.5967 275.117 49.188V57H271.769V41.5H275.117V44.104ZM291.408 44.724H287.564V52.164C287.564 52.8047 287.708 53.2697 287.998 53.559C288.287 53.8277 288.711 53.9827 289.269 54.024C289.847 54.0447 290.56 54.0343 291.408 53.993V57C288.845 57.31 287.006 57.093 285.89 56.349C284.774 55.5843 284.216 54.1893 284.216 52.164V44.724H281.364V41.5H284.216V38.152L287.564 37.16V41.5H291.408V44.724ZM29.393 92.403C27.3057 92.403 25.5283 91.9277 24.061 90.977C22.6143 90.0263 21.6017 88.7243 21.023 87.071L24.092 85.273C24.96 87.7117 26.758 88.931 29.486 88.931C30.8293 88.931 31.8317 88.6727 32.493 88.156C33.175 87.6187 33.516 86.9263 33.516 86.079C33.516 85.1903 33.1543 84.5187 32.431 84.064C31.7077 83.5887 30.4263 83.072 28.587 82.514C27.5537 82.204 26.7167 81.9147 26.076 81.646C25.4353 81.3773 24.7533 81.0053 24.03 80.53C23.3273 80.034 22.8003 79.4243 22.449 78.701C22.0977 77.9777 21.922 77.1303 21.922 76.159C21.922 74.237 22.604 72.718 23.968 71.602C25.332 70.4653 26.975 69.897 28.897 69.897C30.633 69.897 32.152 70.3207 33.454 71.168C34.756 72.0153 35.7583 73.183 36.461 74.671L33.454 76.407C32.5447 74.3817 31.0257 73.369 28.897 73.369C27.8637 73.369 27.037 73.617 26.417 74.113C25.797 74.5883 25.487 75.2393 25.487 76.066C25.487 76.872 25.797 77.5127 26.417 77.988C27.0577 78.4427 28.2047 78.9283 29.858 79.445C30.6847 79.7137 31.284 79.9203 31.656 80.065C32.0487 80.189 32.586 80.3957 33.268 80.685C33.9707 80.9743 34.4977 81.2637 34.849 81.553C35.2003 81.8423 35.5723 82.204 35.965 82.638C36.3783 83.072 36.6677 83.568 36.833 84.126C36.9983 84.684 37.081 85.3143 37.081 86.017C37.081 87.9803 36.368 89.5407 34.942 90.698C33.5367 91.8347 31.687 92.403 29.393 92.403ZM47.6753 92.403C45.3399 92.403 43.3869 91.6177 41.8163 90.047C40.2663 88.4763 39.4913 86.544 39.4913 84.25C39.4913 81.9353 40.2663 80.003 41.8163 78.453C43.3869 76.8823 45.3399 76.097 47.6753 76.097C49.1839 76.097 50.5583 76.4587 51.7983 77.182C53.0383 77.9053 53.9683 78.8767 54.5883 80.096L51.7053 81.77C51.3539 81.026 50.8166 80.4473 50.0933 80.034C49.3906 79.6 48.5743 79.383 47.6443 79.383C46.2803 79.383 45.1333 79.848 44.2033 80.778C43.2939 81.708 42.8393 82.8653 42.8393 84.25C42.8393 85.6347 43.2939 86.792 44.2033 87.722C45.1333 88.652 46.2803 89.117 47.6443 89.117C48.5536 89.117 49.3699 88.9 50.0933 88.466C50.8373 88.032 51.3953 87.4533 51.7673 86.73L54.6503 88.373C53.9889 89.613 53.0383 90.5947 51.7983 91.318C50.5583 92.0413 49.1839 92.403 47.6753 92.403ZM69.104 76.5H72.452V92H69.104V89.768C67.8433 91.5247 66.035 92.403 63.679 92.403C61.5503 92.403 59.7317 91.6177 58.223 90.047C56.7143 88.4557 55.96 86.5233 55.96 84.25C55.96 81.956 56.7143 80.0237 58.223 78.453C59.7317 76.8823 61.5503 76.097 63.679 76.097C66.035 76.097 67.8433 76.965 69.104 78.701V76.5ZM60.703 87.815C61.633 88.745 62.8007 89.21 64.206 89.21C65.6113 89.21 66.779 88.745 67.709 87.815C68.639 86.8643 69.104 85.676 69.104 84.25C69.104 82.824 68.639 81.646 67.709 80.716C66.779 79.7653 65.6113 79.29 64.206 79.29C62.8007 79.29 61.633 79.7653 60.703 80.716C59.773 81.646 59.308 82.824 59.308 84.25C59.308 85.676 59.773 86.8643 60.703 87.815ZM84.5074 76.097C86.2847 76.097 87.721 76.6653 88.8164 77.802C89.9117 78.9387 90.4594 80.499 90.4594 82.483V92H87.1114V82.824C87.1114 81.6667 86.8014 80.778 86.1814 80.158C85.5614 79.538 84.714 79.228 83.6394 79.228C82.4614 79.228 81.5107 79.6 80.7874 80.344C80.064 81.0673 79.7024 82.1833 79.7024 83.692V92H76.3544V76.5H79.7024V78.484C80.715 76.8927 82.3167 76.097 84.5074 76.097ZM102.217 76.097C103.995 76.097 105.431 76.6653 106.526 77.802C107.622 78.9387 108.169 80.499 108.169 82.483V92H104.821V82.824C104.821 81.6667 104.511 80.778 103.891 80.158C103.271 79.538 102.424 79.228 101.349 79.228C100.171 79.228 99.2207 79.6 98.4973 80.344C97.774 81.0673 97.4123 82.1833 97.4123 83.692V92H94.0643V76.5H97.4123V78.484C98.425 76.8927 100.027 76.097 102.217 76.097ZM114.936 73.555C114.523 73.9683 114.027 74.175 113.448 74.175C112.87 74.175 112.363 73.9683 111.929 73.555C111.516 73.121 111.309 72.6147 111.309 72.036C111.309 71.4573 111.516 70.9613 111.929 70.548C112.343 70.114 112.849 69.897 113.448 69.897C114.048 69.897 114.554 70.114 114.967 70.548C115.381 70.9613 115.587 71.4573 115.587 72.036C115.587 72.6147 115.37 73.121 114.936 73.555ZM111.774 92V76.5H115.122V92H111.774ZM127.163 76.097C128.94 76.097 130.376 76.6653 131.472 77.802C132.567 78.9387 133.115 80.499 133.115 82.483V92H129.767V82.824C129.767 81.6667 129.457 80.778 128.837 80.158C128.217 79.538 127.369 79.228 126.295 79.228C125.117 79.228 124.166 79.6 123.443 80.344C122.719 81.0673 122.358 82.1833 122.358 83.692V92H119.01V76.5H122.358V78.484C123.37 76.8927 124.972 76.097 127.163 76.097ZM149.058 76.5H152.344V91.287C152.344 93.643 151.569 95.4513 150.019 96.712C148.469 97.9727 146.588 98.603 144.377 98.603C140.801 98.603 138.352 97.3527 137.03 94.852L139.913 93.178C140.719 94.7693 142.227 95.565 144.439 95.565C145.885 95.565 147.012 95.1827 147.818 94.418C148.644 93.674 149.058 92.6303 149.058 91.287V89.396C147.797 91.194 145.999 92.093 143.664 92.093C141.473 92.093 139.623 91.318 138.115 89.768C136.606 88.1973 135.852 86.3063 135.852 84.095C135.852 81.8837 136.606 80.003 138.115 78.453C139.623 76.8823 141.473 76.097 143.664 76.097C145.999 76.097 147.797 76.996 149.058 78.794V76.5ZM140.595 87.567C141.545 88.497 142.723 88.962 144.129 88.962C145.534 88.962 146.702 88.497 147.632 87.567C148.582 86.637 149.058 85.4797 149.058 84.095C149.058 82.7103 148.582 81.553 147.632 80.623C146.702 79.693 145.534 79.228 144.129 79.228C142.723 79.228 141.545 79.693 140.595 80.623C139.665 81.553 139.2 82.7103 139.2 84.095C139.2 85.4797 139.665 86.637 140.595 87.567Z" fill="white"/>
<path d="M118.81 197.45C127.531 171.929 162.794 171.156 173.133 195.131L174.008 197.465L185.777 231.881C188.474 239.774 192.833 246.997 198.558 253.062C204.284 259.128 211.244 263.895 218.969 267.042L222.133 268.223L256.55 279.977C282.071 288.698 282.844 323.96 258.883 334.3L256.55 335.175L222.133 346.944C214.238 349.639 207.012 353.997 200.944 359.722C194.876 365.448 190.107 372.409 186.958 380.135L185.777 383.285L174.023 417.717C165.302 443.237 130.04 444.01 119.715 420.05L118.81 417.717L107.056 383.3C104.361 375.404 100.003 368.179 94.2775 362.111C88.5517 356.043 81.5908 351.273 73.8646 348.125L70.7146 346.944L36.298 335.19C10.7626 326.469 9.98964 291.206 33.9646 280.881L36.298 279.977L70.7146 268.223C78.6076 265.526 85.8304 261.167 91.8958 255.442C97.9612 249.716 102.728 242.756 105.875 235.031L107.056 231.881L118.81 197.45ZM263.083 147.167C265.812 147.167 268.485 147.932 270.8 149.376C273.115 150.819 274.979 152.883 276.179 155.333L276.879 157.04L281.983 172.002L296.96 177.106C299.695 178.035 302.091 179.755 303.847 182.047C305.603 184.34 306.639 187.102 306.823 189.984C307.007 192.865 306.332 195.737 304.882 198.234C303.433 200.732 301.275 202.743 298.681 204.012L296.96 204.712L281.998 209.817L276.894 224.794C275.963 227.527 274.242 229.923 271.949 231.677C269.656 233.431 266.893 234.465 264.012 234.648C261.13 234.831 258.259 234.154 255.762 232.703C253.266 231.253 251.256 229.094 249.988 226.5L249.288 224.794L244.183 209.831L229.206 204.727C226.472 203.798 224.075 202.078 222.32 199.786C220.564 197.493 219.528 194.731 219.344 191.85C219.16 188.968 219.835 186.096 221.284 183.599C222.734 181.101 224.892 179.09 227.485 177.821L229.206 177.121L244.169 172.017L249.273 157.04C250.256 154.158 252.117 151.657 254.594 149.886C257.07 148.116 260.039 147.165 263.083 147.167Z" fill="white" fill-opacity="0.6"/>
</g>
<defs>
<clipPath id="clip0_112_2934">
<rect width="321" height="393" rx="20" fill="white"/>
</clipPath>
</defs>
</svg>
