<svg width="320" height="393" viewBox="0 0 320 393" fill="none" xmlns="http://www.w3.org/2000/svg">
<g clip-path="url(#clip0_112_2933)">
<rect width="320" height="393" rx="20" fill="#002B1A"/>
<path d="M22.17 35.3H25.735V57H22.17V35.3ZM38.0074 41.097C39.7847 41.097 41.221 41.6653 42.3164 42.802C43.4117 43.9387 43.9594 45.499 43.9594 47.483V57H40.6114V47.824C40.6114 46.6667 40.3014 45.778 39.6814 45.158C39.0614 44.538 38.214 44.228 37.1394 44.228C35.9614 44.228 35.0107 44.6 34.2874 45.344C33.564 46.0673 33.2024 47.1833 33.2024 48.692V57H29.8544V41.5H33.2024V43.484C34.215 41.8927 35.8167 41.097 38.0074 41.097ZM54.8803 57.403C52.545 57.403 50.592 56.6177 49.0213 55.047C47.4713 53.4763 46.6963 51.544 46.6963 49.25C46.6963 46.9353 47.4713 45.003 49.0213 43.453C50.592 41.8823 52.545 41.097 54.8803 41.097C56.389 41.097 57.7633 41.4587 59.0033 42.182C60.2433 42.9053 61.1733 43.8767 61.7933 45.096L58.9103 46.77C58.559 46.026 58.0217 45.4473 57.2983 45.034C56.5957 44.6 55.7793 44.383 54.8493 44.383C53.4853 44.383 52.3383 44.848 51.4083 45.778C50.499 46.708 50.0443 47.8653 50.0443 49.25C50.0443 50.6347 50.499 51.792 51.4083 52.722C52.3383 53.652 53.4853 54.117 54.8493 54.117C55.7587 54.117 56.575 53.9 57.2983 53.466C58.0423 53.032 58.6003 52.4533 58.9723 51.73L61.8553 53.373C61.194 54.613 60.2433 55.5947 59.0033 56.318C57.7633 57.0413 56.389 57.403 54.8803 57.403ZM67.4373 38.555C67.0239 38.9683 66.5279 39.175 65.9493 39.175C65.3706 39.175 64.8643 38.9683 64.4303 38.555C64.0169 38.121 63.8103 37.6147 63.8103 37.036C63.8103 36.4573 64.0169 35.9613 64.4303 35.548C64.8436 35.114 65.3499 34.897 65.9493 34.897C66.5486 34.897 67.0549 35.114 67.4683 35.548C67.8816 35.9613 68.0883 36.4573 68.0883 37.036C68.0883 37.6147 67.8713 38.121 67.4373 38.555ZM64.2753 57V41.5H67.6233V57H64.2753ZM83.7866 35.3H87.1346V57H83.7866V54.768C82.526 56.5247 80.7176 57.403 78.3616 57.403C76.233 57.403 74.4143 56.6177 72.9056 55.047C71.397 53.4557 70.6426 51.5233 70.6426 49.25C70.6426 46.956 71.397 45.0237 72.9056 43.453C74.4143 41.8823 76.233 41.097 78.3616 41.097C80.7176 41.097 82.526 41.965 83.7866 43.701V35.3ZM75.3856 52.815C76.3156 53.745 77.4833 54.21 78.8886 54.21C80.294 54.21 81.4616 53.745 82.3916 52.815C83.3216 51.8643 83.7866 50.676 83.7866 49.25C83.7866 47.824 83.3216 46.646 82.3916 45.716C81.4616 44.7653 80.294 44.29 78.8886 44.29C77.4833 44.29 76.3156 44.7653 75.3856 45.716C74.4556 46.646 73.9906 47.824 73.9906 49.25C73.9906 50.676 74.4556 51.8643 75.3856 52.815ZM93.672 50.676C93.92 51.854 94.4883 52.7633 95.377 53.404C96.2657 54.024 97.3507 54.334 98.632 54.334C100.409 54.334 101.742 53.6933 102.631 52.412L105.39 54.024C103.861 56.2767 101.598 57.403 98.601 57.403C96.0797 57.403 94.044 56.6383 92.494 55.109C90.944 53.559 90.169 51.606 90.169 49.25C90.169 46.9353 90.9337 45.003 92.463 43.453C93.9923 41.8823 95.9557 41.097 98.353 41.097C100.626 41.097 102.486 41.8927 103.933 43.484C105.4 45.0753 106.134 47.0077 106.134 49.281C106.134 49.6323 106.093 50.0973 106.01 50.676H93.672ZM93.641 47.948H102.755C102.528 46.6873 102.001 45.7367 101.174 45.096C100.368 44.4553 99.4173 44.135 98.322 44.135C97.082 44.135 96.0487 44.476 95.222 45.158C94.3953 45.84 93.8683 46.77 93.641 47.948ZM117.233 41.097C119.01 41.097 120.447 41.6653 121.542 42.802C122.637 43.9387 123.185 45.499 123.185 47.483V57H119.837V47.824C119.837 46.6667 119.527 45.778 118.907 45.158C118.287 44.538 117.44 44.228 116.365 44.228C115.187 44.228 114.236 44.6 113.513 45.344C112.79 46.0673 112.428 47.1833 112.428 48.692V57H109.08V41.5H112.428V43.484C113.441 41.8927 115.042 41.097 117.233 41.097ZM134.106 57.403C131.771 57.403 129.818 56.6177 128.247 55.047C126.697 53.4763 125.922 51.544 125.922 49.25C125.922 46.9353 126.697 45.003 128.247 43.453C129.818 41.8823 131.771 41.097 134.106 41.097C135.615 41.097 136.989 41.4587 138.229 42.182C139.469 42.9053 140.399 43.8767 141.019 45.096L138.136 46.77C137.785 46.026 137.247 45.4473 136.524 45.034C135.821 44.6 135.005 44.383 134.075 44.383C132.711 44.383 131.564 44.848 130.634 45.778C129.725 46.708 129.27 47.8653 129.27 49.25C129.27 50.6347 129.725 51.792 130.634 52.722C131.564 53.652 132.711 54.117 134.075 54.117C134.984 54.117 135.801 53.9 136.524 53.466C137.268 53.032 137.826 52.4533 138.198 51.73L141.081 53.373C140.42 54.613 139.469 55.5947 138.229 56.318C136.989 57.0413 135.615 57.403 134.106 57.403ZM145.894 50.676C146.142 51.854 146.71 52.7633 147.599 53.404C148.487 54.024 149.572 54.334 150.854 54.334C152.631 54.334 153.964 53.6933 154.853 52.412L157.612 54.024C156.082 56.2767 153.819 57.403 150.823 57.403C148.301 57.403 146.266 56.6383 144.716 55.109C143.166 53.559 142.391 51.606 142.391 49.25C142.391 46.9353 143.155 45.003 144.685 43.453C146.214 41.8823 148.177 41.097 150.575 41.097C152.848 41.097 154.708 41.8927 156.155 43.484C157.622 45.0753 158.356 47.0077 158.356 49.281C158.356 49.6323 158.314 50.0973 158.232 50.676H145.894ZM145.863 47.948H154.977C154.749 46.6873 154.222 45.7367 153.396 45.096C152.59 44.4553 151.639 44.135 150.544 44.135C149.304 44.135 148.27 44.476 147.444 45.158C146.617 45.84 146.09 46.77 145.863 47.948ZM187.094 55.915L184.211 57.589L182.134 55.357C180.418 56.721 178.403 57.403 176.089 57.403C173.877 57.403 172.079 56.8347 170.695 55.698C169.331 54.5613 168.649 53.0113 168.649 51.048C168.649 49.746 168.969 48.5473 169.61 47.452C170.271 46.3567 171.222 45.4783 172.462 44.817C171.635 43.6803 171.222 42.4197 171.222 41.035C171.222 39.2163 171.852 37.7387 173.113 36.602C174.394 35.4653 175.965 34.897 177.825 34.897C179.313 34.897 180.656 35.2897 181.855 36.075C183.053 36.8603 183.942 37.9763 184.521 39.423L181.483 41.159C181.193 40.291 180.728 39.609 180.088 39.113C179.447 38.617 178.703 38.369 177.856 38.369C176.988 38.369 176.254 38.6273 175.655 39.144C175.076 39.64 174.787 40.3013 174.787 41.128C174.787 41.562 174.88 41.996 175.066 42.43C175.252 42.864 175.448 43.2257 175.655 43.515C175.882 43.7837 176.213 44.1453 176.647 44.6L181.917 50.304C182.433 49.25 182.805 47.9893 183.033 46.522L186.071 48.258C185.699 49.994 185.099 51.5233 184.273 52.846L187.094 55.915ZM176.275 54.086C177.659 54.086 178.858 53.7037 179.871 52.939L174.539 47.204C173.009 47.9687 172.245 49.157 172.245 50.769C172.245 51.7817 172.596 52.5877 173.299 53.187C174.001 53.7863 174.993 54.086 176.275 54.086ZM30.168 70.3C32.214 70.3 33.919 70.982 35.283 72.346C36.6677 73.71 37.36 75.4047 37.36 77.43C37.36 79.4347 36.6677 81.1293 35.283 82.514C33.919 83.878 32.214 84.56 30.168 84.56H25.735V92H22.17V70.3H30.168ZM30.168 81.212C31.222 81.212 32.09 80.8607 32.772 80.158C33.454 79.4347 33.795 78.5253 33.795 77.43C33.795 76.3347 33.454 75.4357 32.772 74.733C32.09 74.0097 31.222 73.648 30.168 73.648H25.735V81.212H30.168ZM43.2834 79.104C44.1308 77.182 45.7221 76.221 48.0574 76.221V79.848C46.7761 79.7653 45.6601 80.0753 44.7094 80.778C43.7588 81.46 43.2834 82.5967 43.2834 84.188V92H39.9354V76.5H43.2834V79.104ZM52.4396 85.676C52.6876 86.854 53.2559 87.7633 54.1446 88.404C55.0332 89.024 56.1182 89.334 57.3996 89.334C59.1769 89.334 60.5099 88.6933 61.3986 87.412L64.1576 89.024C62.6282 91.2767 60.3652 92.403 57.3686 92.403C54.8472 92.403 52.8116 91.6383 51.2616 90.109C49.7116 88.559 48.9366 86.606 48.9366 84.25C48.9366 81.9353 49.7012 80.003 51.2306 78.453C52.7599 76.8823 54.7232 76.097 57.1206 76.097C59.3939 76.097 61.2539 76.8927 62.7006 78.484C64.1679 80.0753 64.9016 82.0077 64.9016 84.281C64.9016 84.6323 64.8602 85.0973 64.7776 85.676H52.4396ZM52.4086 82.948H61.5226C61.2952 81.6873 60.7682 80.7367 59.9416 80.096C59.1356 79.4553 58.1849 79.135 57.0896 79.135C55.8496 79.135 54.8162 79.476 53.9896 80.158C53.1629 80.84 52.6359 81.77 52.4086 82.948ZM77.7511 76.5H81.4091L75.3641 92H71.4891L65.4441 76.5H69.1021L73.4421 88.28L77.7511 76.5ZM95.1997 76.5H98.5477V92H95.1997V89.768C93.939 91.5247 92.1307 92.403 89.7747 92.403C87.646 92.403 85.8274 91.6177 84.3187 90.047C82.81 88.4557 82.0557 86.5233 82.0557 84.25C82.0557 81.956 82.81 80.0237 84.3187 78.453C85.8274 76.8823 87.646 76.097 89.7747 76.097C92.1307 76.097 93.939 76.965 95.1997 78.701V76.5ZM86.7987 87.815C87.7287 88.745 88.8964 89.21 90.3017 89.21C91.707 89.21 92.8747 88.745 93.8047 87.815C94.7347 86.8643 95.1997 85.676 95.1997 84.25C95.1997 82.824 94.7347 81.646 93.8047 80.716C92.8747 79.7653 91.707 79.29 90.3017 79.29C88.8964 79.29 87.7287 79.7653 86.7987 80.716C85.8687 81.646 85.4037 82.824 85.4037 84.25C85.4037 85.676 85.8687 86.8643 86.7987 87.815ZM102.45 92V69.37H105.798V92H102.45ZM112.32 85.676C112.568 86.854 113.137 87.7633 114.025 88.404C114.914 89.024 115.999 89.334 117.28 89.334C119.058 89.334 120.391 88.6933 121.279 87.412L124.038 89.024C122.509 91.2767 120.246 92.403 117.249 92.403C114.728 92.403 112.692 91.6383 111.142 90.109C109.592 88.559 108.817 86.606 108.817 84.25C108.817 81.9353 109.582 80.003 111.111 78.453C112.641 76.8823 114.604 76.097 117.001 76.097C119.275 76.097 121.135 76.8927 122.581 78.484C124.049 80.0753 124.782 82.0077 124.782 84.281C124.782 84.6323 124.741 85.0973 124.658 85.676H112.32ZM112.289 82.948H121.403C121.176 81.6873 120.649 80.7367 119.822 80.096C119.016 79.4553 118.066 79.135 116.97 79.135C115.73 79.135 114.697 79.476 113.87 80.158C113.044 80.84 112.517 81.77 112.289 82.948ZM135.881 76.097C137.659 76.097 139.095 76.6653 140.19 77.802C141.286 78.9387 141.833 80.499 141.833 82.483V92H138.485V82.824C138.485 81.6667 138.175 80.778 137.555 80.158C136.935 79.538 136.088 79.228 135.013 79.228C133.835 79.228 132.885 79.6 132.161 80.344C131.438 81.0673 131.076 82.1833 131.076 83.692V92H127.728V76.5H131.076V78.484C132.089 76.8927 133.691 76.097 135.881 76.097ZM152.754 92.403C150.419 92.403 148.466 91.6177 146.895 90.047C145.345 88.4763 144.57 86.544 144.57 84.25C144.57 81.9353 145.345 80.003 146.895 78.453C148.466 76.8823 150.419 76.097 152.754 76.097C154.263 76.097 155.637 76.4587 156.877 77.182C158.117 77.9053 159.047 78.8767 159.667 80.096L156.784 81.77C156.433 81.026 155.896 80.4473 155.172 80.034C154.47 79.6 153.653 79.383 152.723 79.383C151.359 79.383 150.212 79.848 149.282 80.778C148.373 81.708 147.918 82.8653 147.918 84.25C147.918 85.6347 148.373 86.792 149.282 87.722C150.212 88.652 151.359 89.117 152.723 89.117C153.633 89.117 154.449 88.9 155.172 88.466C155.916 88.032 156.474 87.4533 156.846 86.73L159.729 88.373C159.068 89.613 158.117 90.5947 156.877 91.318C155.637 92.0413 154.263 92.403 152.754 92.403ZM164.542 85.676C164.79 86.854 165.358 87.7633 166.247 88.404C167.136 89.024 168.221 89.334 169.502 89.334C171.279 89.334 172.612 88.6933 173.501 87.412L176.26 89.024C174.731 91.2767 172.468 92.403 169.471 92.403C166.95 92.403 164.914 91.6383 163.364 90.109C161.814 88.559 161.039 86.606 161.039 84.25C161.039 81.9353 161.804 80.003 163.333 78.453C164.862 76.8823 166.826 76.097 169.223 76.097C171.496 76.097 173.356 76.8927 174.803 78.484C176.27 80.0753 177.004 82.0077 177.004 84.281C177.004 84.6323 176.963 85.0973 176.88 85.676H164.542ZM164.511 82.948H173.625C173.398 81.6873 172.871 80.7367 172.044 80.096C171.238 79.4553 170.287 79.135 169.192 79.135C167.952 79.135 166.919 79.476 166.092 80.158C165.265 80.84 164.738 81.77 164.511 82.948ZM195.14 92.403C193.053 92.403 191.275 91.9277 189.808 90.977C188.361 90.0263 187.349 88.7243 186.77 87.071L189.839 85.273C190.707 87.7117 192.505 88.931 195.233 88.931C196.576 88.931 197.579 88.6727 198.24 88.156C198.922 87.6187 199.263 86.9263 199.263 86.079C199.263 85.1903 198.901 84.5187 198.178 84.064C197.455 83.5887 196.173 83.072 194.334 82.514C193.301 82.204 192.464 81.9147 191.823 81.646C191.182 81.3773 190.5 81.0053 189.777 80.53C189.074 80.034 188.547 79.4243 188.196 78.701C187.845 77.9777 187.669 77.1303 187.669 76.159C187.669 74.237 188.351 72.718 189.715 71.602C191.079 70.4653 192.722 69.897 194.644 69.897C196.38 69.897 197.899 70.3207 199.201 71.168C200.503 72.0153 201.505 73.183 202.208 74.671L199.201 76.407C198.292 74.3817 196.773 73.369 194.644 73.369C193.611 73.369 192.784 73.617 192.164 74.113C191.544 74.5883 191.234 75.2393 191.234 76.066C191.234 76.872 191.544 77.5127 192.164 77.988C192.805 78.4427 193.952 78.9283 195.605 79.445C196.432 79.7137 197.031 79.9203 197.403 80.065C197.796 80.189 198.333 80.3957 199.015 80.685C199.718 80.9743 200.245 81.2637 200.596 81.553C200.947 81.8423 201.319 82.204 201.712 82.638C202.125 83.072 202.415 83.568 202.58 84.126C202.745 84.684 202.828 85.3143 202.828 86.017C202.828 87.9803 202.115 89.5407 200.689 90.698C199.284 91.8347 197.434 92.403 195.14 92.403ZM213.877 79.724H210.033V87.164C210.033 87.8047 210.178 88.2697 210.467 88.559C210.757 88.8277 211.18 88.9827 211.738 89.024C212.317 89.0447 213.03 89.0343 213.877 88.993V92C211.315 92.31 209.475 92.093 208.359 91.349C207.243 90.5843 206.685 89.1893 206.685 87.164V79.724H203.833V76.5H206.685V73.152L210.033 72.16V76.5H213.877V79.724ZM228.554 76.5H231.902V92H228.554V89.768C227.294 91.5247 225.485 92.403 223.129 92.403C221.001 92.403 219.182 91.6177 217.673 90.047C216.165 88.4557 215.41 86.5233 215.41 84.25C215.41 81.956 216.165 80.0237 217.673 78.453C219.182 76.8823 221.001 76.097 223.129 76.097C225.485 76.097 227.294 76.965 228.554 78.701V76.5ZM220.153 87.815C221.083 88.745 222.251 89.21 223.656 89.21C225.062 89.21 226.229 88.745 227.159 87.815C228.089 86.8643 228.554 85.676 228.554 84.25C228.554 82.824 228.089 81.646 227.159 80.716C226.229 79.7653 225.062 79.29 223.656 79.29C222.251 79.29 221.083 79.7653 220.153 80.716C219.223 81.646 218.758 82.824 218.758 84.25C218.758 85.676 219.223 86.8643 220.153 87.815ZM244.454 79.724H240.61V87.164C240.61 87.8047 240.754 88.2697 241.044 88.559C241.333 88.8277 241.757 88.9827 242.315 89.024C242.893 89.0447 243.606 89.0343 244.454 88.993V92C241.891 92.31 240.052 92.093 238.936 91.349C237.82 90.5843 237.262 89.1893 237.262 87.164V79.724H234.41V76.5H237.262V73.152L240.61 72.16V76.5H244.454V79.724ZM249.922 80.778C249.922 81.2947 250.201 81.708 250.759 82.018C251.338 82.3073 252.03 82.5657 252.836 82.793C253.663 82.9997 254.489 83.2477 255.316 83.537C256.143 83.8263 256.835 84.3223 257.393 85.025C257.972 85.707 258.261 86.575 258.261 87.629C258.261 89.117 257.682 90.2847 256.525 91.132C255.388 91.9793 253.952 92.403 252.216 92.403C250.687 92.403 249.374 92.0827 248.279 91.442C247.184 90.8013 246.388 89.9127 245.892 88.776L248.775 87.102C249.312 88.59 250.459 89.334 252.216 89.334C253.973 89.334 254.851 88.7553 254.851 87.598C254.851 87.102 254.562 86.699 253.983 86.389C253.425 86.079 252.733 85.8207 251.906 85.614C251.1 85.3867 250.284 85.1283 249.457 84.839C248.63 84.5497 247.928 84.0743 247.349 83.413C246.791 82.731 246.512 81.8733 246.512 80.84C246.512 79.414 247.049 78.267 248.124 77.399C249.219 76.531 250.573 76.097 252.185 76.097C253.466 76.097 254.603 76.3863 255.595 76.965C256.608 77.523 257.383 78.3083 257.92 79.321L255.099 80.902C254.562 79.724 253.59 79.135 252.185 79.135C251.544 79.135 251.007 79.2797 250.573 79.569C250.139 79.8377 249.922 80.2407 249.922 80.778Z" fill="white"/>
<path d="M174.676 163.045C172.117 163.045 170.038 165.124 170.038 167.686C170.038 167.924 170.14 168.131 170.175 168.362H170.038V278.395C170.038 280.957 172.117 283.036 174.676 283.036H284.705V282.899C284.936 282.934 285.143 283.036 285.384 283.036C287.943 283.036 290.022 280.957 290.022 278.395C289.364 214.975 238.096 163.707 174.676 163.045Z" fill="white" fill-opacity="0.3"/>
<path d="M263.198 305.11C263.198 302.548 261.122 300.469 258.56 300.469H157.414C156.183 300.468 155.004 299.979 154.134 299.108C153.264 298.238 152.776 297.058 152.776 295.828V195.052H152.64C152.675 194.821 152.776 194.615 152.776 194.377C152.776 191.811 150.697 189.736 148.135 189.736C148.023 189.736 147.932 189.792 147.824 189.799V189.767C147.411 189.764 147.001 189.736 146.588 189.736C82.188 189.736 29.9785 241.945 29.9785 306.345C29.9785 370.745 82.188 422.955 146.588 422.955C210.988 422.955 263.198 370.745 263.198 306.345C263.193 305.977 263.185 305.606 263.173 305.232C263.173 305.187 263.198 305.152 263.198 305.11Z" fill="white" fill-opacity="0.3"/>
</g>
<defs>
<clipPath id="clip0_112_2933">
<rect width="320" height="393" rx="20" fill="white"/>
</clipPath>
</defs>
</svg>
