<svg width="320" height="393" viewBox="0 0 320 393" fill="none" xmlns="http://www.w3.org/2000/svg">
<g clip-path="url(#clip0_112_2932)">
<rect width="320" height="393" rx="20" fill="#FFC53D"/>
<path d="M34.539 57L29.951 49.095H25.735V57H22.17V35.3H30.85C32.7927 35.3 34.4357 35.982 35.779 37.346C37.143 38.6893 37.825 40.3323 37.825 42.275C37.825 43.6597 37.422 44.9307 36.616 46.088C35.8307 47.2247 34.7973 48.0513 33.516 48.568L38.445 57H34.539ZM25.735 38.648V45.902H30.85C31.8007 45.902 32.6067 45.5507 33.268 44.848C33.9293 44.1453 34.26 43.2877 34.26 42.275C34.26 41.2623 33.9293 40.4047 33.268 39.702C32.6067 38.9993 31.8007 38.648 30.85 38.648H25.735ZM42.7823 50.676C43.0303 51.854 43.5987 52.7633 44.4873 53.404C45.376 54.024 46.461 54.334 47.7423 54.334C49.5197 54.334 50.8527 53.6933 51.7413 52.412L54.5003 54.024C52.971 56.2767 50.708 57.403 47.7113 57.403C45.19 57.403 43.1543 56.6383 41.6043 55.109C40.0543 53.559 39.2793 51.606 39.2793 49.25C39.2793 46.9353 40.044 45.003 41.5733 43.453C43.1027 41.8823 45.066 41.097 47.4633 41.097C49.7367 41.097 51.5967 41.8927 53.0433 43.484C54.5107 45.0753 55.2443 47.0077 55.2443 49.281C55.2443 49.6323 55.203 50.0973 55.1203 50.676H42.7823ZM42.7513 47.948H51.8653C51.638 46.6873 51.111 45.7367 50.2843 45.096C49.4783 44.4553 48.5277 44.135 47.4323 44.135C46.1923 44.135 45.159 44.476 44.3323 45.158C43.5057 45.84 42.9787 46.77 42.7513 47.948ZM70.3755 41.5H73.7235V57H70.3755V54.768C69.1148 56.5247 67.3065 57.403 64.9505 57.403C62.8218 57.403 61.0032 56.6177 59.4945 55.047C57.9858 53.4557 57.2315 51.5233 57.2315 49.25C57.2315 46.956 57.9858 45.0237 59.4945 43.453C61.0032 41.8823 62.8218 41.097 64.9505 41.097C67.3065 41.097 69.1148 41.965 70.3755 43.701V41.5ZM61.9745 52.815C62.9045 53.745 64.0722 54.21 65.4775 54.21C66.8828 54.21 68.0505 53.745 68.9805 52.815C69.9105 51.8643 70.3755 50.676 70.3755 49.25C70.3755 47.824 69.9105 46.646 68.9805 45.716C68.0505 44.7653 66.8828 44.29 65.4775 44.29C64.0722 44.29 62.9045 44.7653 61.9745 45.716C61.0445 46.646 60.5795 47.824 60.5795 49.25C60.5795 50.676 61.0445 51.8643 61.9745 52.815ZM77.6259 57V34.37H80.9739V57H77.6259ZM85.0782 49.188V45.964H96.5482V49.188H85.0782ZM113.442 35.3V38.71H107.335V57H103.77V38.71H97.632V35.3H113.442ZM119.023 38.555C118.61 38.9683 118.114 39.175 117.535 39.175C116.957 39.175 116.45 38.9683 116.016 38.555C115.603 38.121 115.396 37.6147 115.396 37.036C115.396 36.4573 115.603 35.9613 116.016 35.548C116.43 35.114 116.936 34.897 117.535 34.897C118.135 34.897 118.641 35.114 119.054 35.548C119.468 35.9613 119.674 36.4573 119.674 37.036C119.674 37.6147 119.457 38.121 119.023 38.555ZM115.861 57V41.5H119.209V57H115.861ZM140.023 41.097C141.779 41.097 143.195 41.6653 144.27 42.802C145.344 43.9387 145.882 45.468 145.882 47.39V57H142.534V47.607C142.534 46.5323 142.265 45.7057 141.728 45.127C141.19 44.5277 140.457 44.228 139.527 44.228C138.493 44.228 137.667 44.569 137.047 45.251C136.447 45.933 136.148 46.956 136.148 48.32V57H132.8V47.607C132.8 46.5323 132.541 45.7057 132.025 45.127C131.529 44.5277 130.816 44.228 129.886 44.228C128.873 44.228 128.046 44.5793 127.406 45.282C126.765 45.964 126.445 46.9767 126.445 48.32V57H123.097V41.5H126.445V43.36C127.437 41.8513 128.914 41.097 130.878 41.097C132.862 41.097 134.329 41.9133 135.28 43.546C136.313 41.9133 137.894 41.097 140.023 41.097ZM152.1 50.676C152.348 51.854 152.916 52.7633 153.805 53.404C154.693 54.024 155.778 54.334 157.06 54.334C158.837 54.334 160.17 53.6933 161.059 52.412L163.818 54.024C162.288 56.2767 160.025 57.403 157.029 57.403C154.507 57.403 152.472 56.6383 150.922 55.109C149.372 53.559 148.597 51.606 148.597 49.25C148.597 46.9353 149.361 45.003 150.891 43.453C152.42 41.8823 154.383 41.097 156.781 41.097C159.054 41.097 160.914 41.8927 162.361 43.484C163.828 45.0753 164.562 47.0077 164.562 49.281C164.562 49.6323 164.52 50.0973 164.438 50.676H152.1ZM152.069 47.948H161.183C160.955 46.6873 160.428 45.7367 159.602 45.096C158.796 44.4553 157.845 44.135 156.75 44.135C155.51 44.135 154.476 44.476 153.65 45.158C152.823 45.84 152.296 46.77 152.069 47.948ZM40.305 89.148C38.135 91.318 35.4793 92.403 32.338 92.403C29.1967 92.403 26.5307 91.318 24.34 89.148C22.17 86.9573 21.085 84.2913 21.085 81.15C21.085 78.0087 22.17 75.353 24.34 73.183C26.5307 70.9923 29.1967 69.897 32.338 69.897C35.4793 69.897 38.135 70.9923 40.305 73.183C42.4957 75.353 43.591 78.0087 43.591 81.15C43.591 84.2913 42.4957 86.9573 40.305 89.148ZM26.851 86.73C28.339 88.1973 30.168 88.931 32.338 88.931C34.508 88.931 36.3267 88.1973 37.794 86.73C39.282 85.242 40.026 83.382 40.026 81.15C40.026 78.918 39.282 77.0683 37.794 75.601C36.3267 74.113 34.508 73.369 32.338 73.369C30.168 73.369 28.339 74.113 26.851 75.601C25.3837 77.0683 24.65 78.918 24.65 81.15C24.65 83.382 25.3837 85.242 26.851 86.73ZM57.2545 76.5H60.6025V92H57.2545V90.016C56.2418 91.6073 54.6402 92.403 52.4495 92.403C50.6722 92.403 49.2358 91.8347 48.1405 90.698C47.0452 89.5613 46.4975 88.001 46.4975 86.017V76.5H49.8455V85.676C49.8455 86.8333 50.1555 87.722 50.7755 88.342C51.3955 88.962 52.2428 89.272 53.3175 89.272C54.4955 89.272 55.4462 88.9103 56.1695 88.187C56.8928 87.443 57.2545 86.3167 57.2545 84.808V76.5ZM73.1665 79.724H69.3225V87.164C69.3225 87.8047 69.4671 88.2697 69.7565 88.559C70.0458 88.8277 70.4695 88.9827 71.0275 89.024C71.6061 89.0447 72.3191 89.0343 73.1665 88.993V92C70.6038 92.31 68.7645 92.093 67.6485 91.349C66.5325 90.5843 65.9745 89.1893 65.9745 87.164V79.724H63.1225V76.5H65.9745V73.152L69.3225 72.16V76.5H73.1665V79.724ZM84.976 76.097C87.1047 76.097 88.9233 76.8823 90.432 78.453C91.9407 80.0237 92.695 81.956 92.695 84.25C92.695 86.5233 91.9407 88.4557 90.432 90.047C88.9233 91.6177 87.1047 92.403 84.976 92.403C82.62 92.403 80.8117 91.5247 79.551 89.768V92H76.203V70.3H79.551V78.701C80.8117 76.965 82.62 76.097 84.976 76.097ZM80.946 87.815C81.876 88.745 83.0437 89.21 84.449 89.21C85.8543 89.21 87.022 88.745 87.952 87.815C88.882 86.8643 89.347 85.676 89.347 84.25C89.347 82.824 88.882 81.646 87.952 80.716C87.022 79.7653 85.8543 79.29 84.449 79.29C83.0437 79.29 81.876 79.7653 80.946 80.716C80.016 81.646 79.551 82.824 79.551 84.25C79.551 85.676 80.016 86.8643 80.946 87.815ZM99.0774 79.104C99.9247 77.182 101.516 76.221 103.851 76.221V79.848C102.57 79.7653 101.454 80.0753 100.503 80.778C99.5527 81.46 99.0774 82.5967 99.0774 84.188V92H95.7294V76.5H99.0774V79.104ZM108.234 85.676C108.482 86.854 109.05 87.7633 109.939 88.404C110.827 89.024 111.912 89.334 113.194 89.334C114.971 89.334 116.304 88.6933 117.193 87.412L119.952 89.024C118.422 91.2767 116.159 92.403 113.163 92.403C110.641 92.403 108.606 91.6383 107.056 90.109C105.506 88.559 104.731 86.606 104.731 84.25C104.731 81.9353 105.495 80.003 107.025 78.453C108.554 76.8823 110.517 76.097 112.915 76.097C115.188 76.097 117.048 76.8927 118.495 78.484C119.962 80.0753 120.696 82.0077 120.696 84.281C120.696 84.6323 120.654 85.0973 120.572 85.676H108.234ZM108.203 82.948H117.317C117.089 81.6873 116.562 80.7367 115.736 80.096C114.93 79.4553 113.979 79.135 112.884 79.135C111.644 79.135 110.61 79.476 109.784 80.158C108.957 80.84 108.43 81.77 108.203 82.948ZM135.827 76.5H139.175V92H135.827V89.768C134.566 91.5247 132.758 92.403 130.402 92.403C128.273 92.403 126.454 91.6177 124.946 90.047C123.437 88.4557 122.683 86.5233 122.683 84.25C122.683 81.956 123.437 80.0237 124.946 78.453C126.454 76.8823 128.273 76.097 130.402 76.097C132.758 76.097 134.566 76.965 135.827 78.701V76.5ZM127.426 87.815C128.356 88.745 129.523 89.21 130.929 89.21C132.334 89.21 133.502 88.745 134.432 87.815C135.362 86.8643 135.827 85.676 135.827 84.25C135.827 82.824 135.362 81.646 134.432 80.716C133.502 79.7653 132.334 79.29 130.929 79.29C129.523 79.29 128.356 79.7653 127.426 80.716C126.496 81.646 126.031 82.824 126.031 84.25C126.031 85.676 126.496 86.8643 127.426 87.815ZM156.779 92H152.78L146.425 84.839V92H143.077V70.3H146.425V83.351L152.439 76.5H156.531L149.711 84.095L156.779 92ZM187.768 70.3V92H184.203V76.531L177.6 87.443H177.166L170.563 76.5V92H166.998V70.3H170.842L177.383 81.15L183.955 70.3H187.768ZM204.154 76.5H207.502V92H204.154V89.768C202.893 91.5247 201.085 92.403 198.729 92.403C196.6 92.403 194.781 91.6177 193.273 90.047C191.764 88.4557 191.01 86.5233 191.01 84.25C191.01 81.956 191.764 80.0237 193.273 78.453C194.781 76.8823 196.6 76.097 198.729 76.097C201.085 76.097 202.893 76.965 204.154 78.701V76.5ZM195.753 87.815C196.683 88.745 197.85 89.21 199.256 89.21C200.661 89.21 201.829 88.745 202.759 87.815C203.689 86.8643 204.154 85.676 204.154 84.25C204.154 82.824 203.689 81.646 202.759 80.716C201.829 79.7653 200.661 79.29 199.256 79.29C197.85 79.29 196.683 79.7653 195.753 80.716C194.823 81.646 194.358 82.824 194.358 84.25C194.358 85.676 194.823 86.8643 195.753 87.815ZM220.177 76.097C222.306 76.097 224.125 76.8927 225.633 78.484C227.142 80.0547 227.896 81.9767 227.896 84.25C227.896 86.544 227.142 88.4763 225.633 90.047C224.125 91.6177 222.306 92.403 220.177 92.403C217.821 92.403 216.013 91.535 214.752 89.799V98.2H211.404V76.5H214.752V78.732C216.013 76.9753 217.821 76.097 220.177 76.097ZM216.147 87.815C217.077 88.745 218.245 89.21 219.65 89.21C221.056 89.21 222.223 88.745 223.153 87.815C224.083 86.8643 224.548 85.676 224.548 84.25C224.548 82.824 224.083 81.646 223.153 80.716C222.223 79.7653 221.056 79.29 219.65 79.29C218.245 79.29 217.077 79.7653 216.147 80.716C215.217 81.646 214.752 82.824 214.752 84.25C214.752 85.676 215.217 86.8643 216.147 87.815Z" fill="white"/>
<path d="M203.75 424.25L116.25 393.625L48.4375 419.875C43.5764 421.819 39.0799 421.275 34.9479 418.242C30.816 415.208 28.75 411.135 28.75 406.021V201.854C28.75 198.694 29.6639 195.899 31.4917 193.469C33.3194 191.038 35.8083 189.215 38.9583 188L116.25 161.75L203.75 192.375L271.562 166.125C276.424 164.181 280.92 164.73 285.052 167.773C289.184 170.816 291.25 174.885 291.25 179.979V384.146C291.25 387.306 290.341 390.101 288.523 392.531C286.705 394.962 284.211 396.785 281.042 398L203.75 424.25ZM189.167 388.521V217.896L130.833 197.479V368.104L189.167 388.521Z" fill="white" fill-opacity="0.6"/>
</g>
<defs>
<clipPath id="clip0_112_2932">
<rect width="320" height="393" rx="20" fill="white"/>
</clipPath>
</defs>
</svg>
