<svg width="321" height="393" viewBox="0 0 321 393" fill="none" xmlns="http://www.w3.org/2000/svg">
<g clip-path="url(#clip0_112_2874)">
<rect width="321" height="393" rx="20" fill="#2A98FF"/>
<path d="M42.94 35.3V57H39.375V41.531L32.772 52.443H32.338L25.735 41.5V57H22.17V35.3H26.014L32.555 46.15L39.127 35.3H42.94ZM57.4967 41.5H60.8447V57H57.4967V55.016C56.484 56.6073 54.8823 57.403 52.6917 57.403C50.9143 57.403 49.478 56.8347 48.3827 55.698C47.2873 54.5613 46.7397 53.001 46.7397 51.017V41.5H50.0877V50.676C50.0877 51.8333 50.3977 52.722 51.0177 53.342C51.6377 53.962 52.485 54.272 53.5597 54.272C54.7377 54.272 55.6883 53.9103 56.4117 53.187C57.135 52.443 57.4967 51.3167 57.4967 49.808V41.5ZM64.7596 57V34.37H68.1076V57H64.7596ZM80.644 44.724H76.8V52.164C76.8 52.8047 76.9447 53.2697 77.234 53.559C77.5233 53.8277 77.947 53.9827 78.505 54.024C79.0837 54.0447 79.7967 54.0343 80.644 53.993V57C78.0813 57.31 76.242 57.093 75.126 56.349C74.01 55.5843 73.452 54.1893 73.452 52.164V44.724H70.6V41.5H73.452V38.152L76.8 37.16V41.5H80.644V44.724ZM86.8425 38.555C86.4292 38.9683 85.9332 39.175 85.3545 39.175C84.7759 39.175 84.2695 38.9683 83.8355 38.555C83.4222 38.121 83.2155 37.6147 83.2155 37.036C83.2155 36.4573 83.4222 35.9613 83.8355 35.548C84.2489 35.114 84.7552 34.897 85.3545 34.897C85.9539 34.897 86.4602 35.114 86.8735 35.548C87.2869 35.9613 87.4935 36.4573 87.4935 37.036C87.4935 37.6147 87.2765 38.121 86.8425 38.555ZM83.6805 57V41.5H87.0285V57H83.6805ZM91.1329 49.188V45.964H102.603V49.188H91.1329ZM113.856 57.403C111.769 57.403 109.991 56.9277 108.524 55.977C107.077 55.0263 106.065 53.7243 105.486 52.071L108.555 50.273C109.423 52.7117 111.221 53.931 113.949 53.931C115.292 53.931 116.295 53.6727 116.956 53.156C117.638 52.6187 117.979 51.9263 117.979 51.079C117.979 50.1903 117.617 49.5187 116.894 49.064C116.171 48.5887 114.889 48.072 113.05 47.514C112.017 47.204 111.18 46.9147 110.539 46.646C109.898 46.3773 109.216 46.0053 108.493 45.53C107.79 45.034 107.263 44.4243 106.912 43.701C106.561 42.9777 106.385 42.1303 106.385 41.159C106.385 39.237 107.067 37.718 108.431 36.602C109.795 35.4653 111.438 34.897 113.36 34.897C115.096 34.897 116.615 35.3207 117.917 36.168C119.219 37.0153 120.221 38.183 120.924 39.671L117.917 41.407C117.008 39.3817 115.489 38.369 113.36 38.369C112.327 38.369 111.5 38.617 110.88 39.113C110.26 39.5883 109.95 40.2393 109.95 41.066C109.95 41.872 110.26 42.5127 110.88 42.988C111.521 43.4427 112.668 43.9283 114.321 44.445C115.148 44.7137 115.747 44.9203 116.119 45.065C116.512 45.189 117.049 45.3957 117.731 45.685C118.434 45.9743 118.961 46.2637 119.312 46.553C119.663 46.8423 120.035 47.204 120.428 47.638C120.841 48.072 121.131 48.568 121.296 49.126C121.461 49.684 121.544 50.3143 121.544 51.017C121.544 52.9803 120.831 54.5407 119.405 55.698C118 56.8347 116.15 57.403 113.856 57.403ZM132.138 57.403C129.865 57.403 127.932 56.6177 126.341 55.047C124.75 53.4763 123.954 51.544 123.954 49.25C123.954 46.956 124.75 45.0237 126.341 43.453C127.932 41.8823 129.865 41.097 132.138 41.097C134.432 41.097 136.364 41.8823 137.935 43.453C139.526 45.0237 140.322 46.956 140.322 49.25C140.322 51.544 139.526 53.4763 137.935 55.047C136.364 56.6177 134.432 57.403 132.138 57.403ZM128.697 52.753C129.627 53.683 130.774 54.148 132.138 54.148C133.502 54.148 134.649 53.683 135.579 52.753C136.509 51.823 136.974 50.6553 136.974 49.25C136.974 47.8447 136.509 46.677 135.579 45.747C134.649 44.817 133.502 44.352 132.138 44.352C130.774 44.352 129.627 44.817 128.697 45.747C127.767 46.677 127.302 47.8447 127.302 49.25C127.302 50.6553 127.767 51.823 128.697 52.753ZM153.796 41.5H157.144V57H153.796V55.016C152.784 56.6073 151.182 57.403 148.991 57.403C147.214 57.403 145.778 56.8347 144.682 55.698C143.587 54.5613 143.039 53.001 143.039 51.017V41.5H146.387V50.676C146.387 51.8333 146.697 52.722 147.317 53.342C147.937 53.962 148.785 54.272 149.859 54.272C151.037 54.272 151.988 53.9103 152.711 53.187C153.435 52.443 153.796 51.3167 153.796 49.808V41.5ZM164.407 44.104C165.255 42.182 166.846 41.221 169.181 41.221V44.848C167.9 44.7653 166.784 45.0753 165.833 45.778C164.883 46.46 164.407 47.5967 164.407 49.188V57H161.059V41.5H164.407V44.104ZM178.245 57.403C175.909 57.403 173.956 56.6177 172.386 55.047C170.836 53.4763 170.061 51.544 170.061 49.25C170.061 46.9353 170.836 45.003 172.386 43.453C173.956 41.8823 175.909 41.097 178.245 41.097C179.753 41.097 181.128 41.4587 182.368 42.182C183.608 42.9053 184.538 43.8767 185.158 45.096L182.275 46.77C181.923 46.026 181.386 45.4473 180.663 45.034C179.96 44.6 179.144 44.383 178.214 44.383C176.85 44.383 175.703 44.848 174.773 45.778C173.863 46.708 173.409 47.8653 173.409 49.25C173.409 50.6347 173.863 51.792 174.773 52.722C175.703 53.652 176.85 54.117 178.214 54.117C179.123 54.117 179.939 53.9 180.663 53.466C181.407 53.032 181.965 52.4533 182.337 51.73L185.22 53.373C184.558 54.613 183.608 55.5947 182.368 56.318C181.128 57.0413 179.753 57.403 178.245 57.403ZM190.032 50.676C190.28 51.854 190.849 52.7633 191.737 53.404C192.626 54.024 193.711 54.334 194.992 54.334C196.77 54.334 198.103 53.6933 198.991 52.412L201.75 54.024C200.221 56.2767 197.958 57.403 194.961 57.403C192.44 57.403 190.404 56.6383 188.854 55.109C187.304 53.559 186.529 51.606 186.529 49.25C186.529 46.9353 187.294 45.003 188.823 43.453C190.353 41.8823 192.316 41.097 194.713 41.097C196.987 41.097 198.847 41.8927 200.293 43.484C201.761 45.0753 202.494 47.0077 202.494 49.281C202.494 49.6323 202.453 50.0973 202.37 50.676H190.032ZM190.001 47.948H199.115C198.888 46.6873 198.361 45.7367 197.534 45.096C196.728 44.4553 195.778 44.135 194.682 44.135C193.442 44.135 192.409 44.476 191.582 45.158C190.756 45.84 190.229 46.77 190.001 47.948ZM221.932 35.3C224.908 35.3 227.378 36.3437 229.341 38.431C231.325 40.5183 232.317 43.0913 232.317 46.15C232.317 49.188 231.325 51.761 229.341 53.869C227.378 55.9563 224.908 57 221.932 57H213.407V35.3H221.932ZM221.932 53.59C223.978 53.59 225.642 52.8873 226.923 51.482C228.225 50.0767 228.876 48.2993 228.876 46.15C228.876 43.98 228.225 42.2027 226.923 40.818C225.642 39.4127 223.978 38.71 221.932 38.71H216.972V53.59H221.932ZM247.626 41.5H250.974V57H247.626V54.768C246.366 56.5247 244.557 57.403 242.201 57.403C240.073 57.403 238.254 56.6177 236.745 55.047C235.237 53.4557 234.482 51.5233 234.482 49.25C234.482 46.956 235.237 45.0237 236.745 43.453C238.254 41.8823 240.073 41.097 242.201 41.097C244.557 41.097 246.366 41.965 247.626 43.701V41.5ZM239.225 52.815C240.155 53.745 241.323 54.21 242.728 54.21C244.134 54.21 245.301 53.745 246.231 52.815C247.161 51.8643 247.626 50.676 247.626 49.25C247.626 47.824 247.161 46.646 246.231 45.716C245.301 44.7653 244.134 44.29 242.728 44.29C241.323 44.29 240.155 44.7653 239.225 45.716C238.295 46.646 237.83 47.824 237.83 49.25C237.83 50.676 238.295 51.8643 239.225 52.815ZM263.526 44.724H259.682V52.164C259.682 52.8047 259.826 53.2697 260.116 53.559C260.405 53.8277 260.829 53.9827 261.387 54.024C261.965 54.0447 262.678 54.0343 263.526 53.993V57C260.963 57.31 259.124 57.093 258.008 56.349C256.892 55.5843 256.334 54.1893 256.334 52.164V44.724H253.482V41.5H256.334V38.152L259.682 37.16V41.5H263.526V44.724ZM278.203 41.5H281.551V57H278.203V54.768C276.942 56.5247 275.134 57.403 272.778 57.403C270.649 57.403 268.83 56.6177 267.322 55.047C265.813 53.4557 265.059 51.5233 265.059 49.25C265.059 46.956 265.813 45.0237 267.322 43.453C268.83 41.8823 270.649 41.097 272.778 41.097C275.134 41.097 276.942 41.965 278.203 43.701V41.5ZM269.802 52.815C270.732 53.745 271.899 54.21 273.305 54.21C274.71 54.21 275.878 53.745 276.808 52.815C277.738 51.8643 278.203 50.676 278.203 49.25C278.203 47.824 277.738 46.646 276.808 45.716C275.878 44.7653 274.71 44.29 273.305 44.29C271.899 44.29 270.732 44.7653 269.802 45.716C268.872 46.646 268.407 47.824 268.407 49.25C268.407 50.676 268.872 51.8643 269.802 52.815ZM36.306 92L34.787 87.629H25.549L24.03 92H20.155L28.029 70.3H32.307L40.15 92H36.306ZM26.727 84.281H33.609L30.168 74.485L26.727 84.281ZM54.2109 76.5H57.4969V91.287C57.4969 93.643 56.7219 95.4513 55.1719 96.712C53.6219 97.9727 51.7413 98.603 49.5299 98.603C45.9546 98.603 43.5056 97.3527 42.1829 94.852L45.0659 93.178C45.8719 94.7693 47.3806 95.565 49.5919 95.565C51.0386 95.565 52.1649 95.1827 52.9709 94.418C53.7976 93.674 54.2109 92.6303 54.2109 91.287V89.396C52.9503 91.194 51.1523 92.093 48.8169 92.093C46.6263 92.093 44.7766 91.318 43.2679 89.768C41.7593 88.1973 41.0049 86.3063 41.0049 84.095C41.0049 81.8837 41.7593 80.003 43.2679 78.453C44.7766 76.8823 46.6263 76.097 48.8169 76.097C51.1523 76.097 52.9503 76.996 54.2109 78.794V76.5ZM45.7479 87.567C46.6986 88.497 47.8766 88.962 49.2819 88.962C50.6873 88.962 51.8549 88.497 52.7849 87.567C53.7356 86.637 54.2109 85.4797 54.2109 84.095C54.2109 82.7103 53.7356 81.553 52.7849 80.623C51.8549 79.693 50.6873 79.228 49.2819 79.228C47.8766 79.228 46.6986 79.693 45.7479 80.623C44.8179 81.553 44.3529 82.7103 44.3529 84.095C44.3529 85.4797 44.8179 86.637 45.7479 87.567ZM73.7373 76.5H77.0233V91.287C77.0233 93.643 76.2483 95.4513 74.6983 96.712C73.1483 97.9727 71.2676 98.603 69.0563 98.603C65.481 98.603 63.032 97.3527 61.7093 94.852L64.5923 93.178C65.3983 94.7693 66.907 95.565 69.1183 95.565C70.565 95.565 71.6913 95.1827 72.4973 94.418C73.324 93.674 73.7373 92.6303 73.7373 91.287V89.396C72.4766 91.194 70.6786 92.093 68.3433 92.093C66.1526 92.093 64.303 91.318 62.7943 89.768C61.2856 88.1973 60.5313 86.3063 60.5313 84.095C60.5313 81.8837 61.2856 80.003 62.7943 78.453C64.303 76.8823 66.1526 76.097 68.3433 76.097C70.6786 76.097 72.4766 76.996 73.7373 78.794V76.5ZM65.2743 87.567C66.225 88.497 67.403 88.962 68.8083 88.962C70.2136 88.962 71.3813 88.497 72.3113 87.567C73.262 86.637 73.7373 85.4797 73.7373 84.095C73.7373 82.7103 73.262 81.553 72.3113 80.623C71.3813 79.693 70.2136 79.228 68.8083 79.228C67.403 79.228 66.225 79.693 65.2743 80.623C64.3443 81.553 63.8793 82.7103 63.8793 84.095C63.8793 85.4797 64.3443 86.637 65.2743 87.567ZM84.2737 79.104C85.121 77.182 86.7123 76.221 89.0477 76.221V79.848C87.7663 79.7653 86.6503 80.0753 85.6997 80.778C84.749 81.46 84.2737 82.5967 84.2737 84.188V92H80.9257V76.5H84.2737V79.104ZM93.4298 85.676C93.6778 86.854 94.2461 87.7633 95.1348 88.404C96.0235 89.024 97.1085 89.334 98.3898 89.334C100.167 89.334 101.5 88.6933 102.389 87.412L105.148 89.024C103.618 91.2767 101.355 92.403 98.3588 92.403C95.8375 92.403 93.8018 91.6383 92.2518 90.109C90.7018 88.559 89.9268 86.606 89.9268 84.25C89.9268 81.9353 90.6915 80.003 92.2208 78.453C93.7501 76.8823 95.7135 76.097 98.1108 76.097C100.384 76.097 102.244 76.8927 103.691 78.484C105.158 80.0753 105.892 82.0077 105.892 84.281C105.892 84.6323 105.85 85.0973 105.768 85.676H93.4298ZM93.3988 82.948H102.513C102.285 81.6873 101.758 80.7367 100.932 80.096C100.126 79.4553 99.1751 79.135 98.0798 79.135C96.8398 79.135 95.8065 79.476 94.9798 80.158C94.1531 80.84 93.6261 81.77 93.3988 82.948ZM121.085 76.5H124.371V91.287C124.371 93.643 123.596 95.4513 122.046 96.712C120.496 97.9727 118.615 98.603 116.404 98.603C112.829 98.603 110.38 97.3527 109.057 94.852L111.94 93.178C112.746 94.7693 114.255 95.565 116.466 95.565C117.913 95.565 119.039 95.1827 119.845 94.418C120.672 93.674 121.085 92.6303 121.085 91.287V89.396C119.824 91.194 118.026 92.093 115.691 92.093C113.5 92.093 111.651 91.318 110.142 89.768C108.633 88.1973 107.879 86.3063 107.879 84.095C107.879 81.8837 108.633 80.003 110.142 78.453C111.651 76.8823 113.5 76.097 115.691 76.097C118.026 76.097 119.824 76.996 121.085 78.794V76.5ZM112.622 87.567C113.573 88.497 114.751 88.962 116.156 88.962C117.561 88.962 118.729 88.497 119.659 87.567C120.61 86.637 121.085 85.4797 121.085 84.095C121.085 82.7103 120.61 81.553 119.659 80.623C118.729 79.693 117.561 79.228 116.156 79.228C114.751 79.228 113.573 79.693 112.622 80.623C111.692 81.553 111.227 82.7103 111.227 84.095C111.227 85.4797 111.692 86.637 112.622 87.567ZM140.549 76.5H143.897V92H140.549V89.768C139.289 91.5247 137.48 92.403 135.124 92.403C132.996 92.403 131.177 91.6177 129.668 90.047C128.16 88.4557 127.405 86.5233 127.405 84.25C127.405 81.956 128.16 80.0237 129.668 78.453C131.177 76.8823 132.996 76.097 135.124 76.097C137.48 76.097 139.289 76.965 140.549 78.701V76.5ZM132.148 87.815C133.078 88.745 134.246 89.21 135.651 89.21C137.057 89.21 138.224 88.745 139.154 87.815C140.084 86.8643 140.549 85.676 140.549 84.25C140.549 82.824 140.084 81.646 139.154 80.716C138.224 79.7653 137.057 79.29 135.651 79.29C134.246 79.29 133.078 79.7653 132.148 80.716C131.218 81.646 130.753 82.824 130.753 84.25C130.753 85.676 131.218 86.8643 132.148 87.815ZM156.449 79.724H152.605V87.164C152.605 87.8047 152.749 88.2697 153.039 88.559C153.328 88.8277 153.752 88.9827 154.31 89.024C154.888 89.0447 155.601 89.0343 156.449 88.993V92C153.886 92.31 152.047 92.093 150.931 91.349C149.815 90.5843 149.257 89.1893 149.257 87.164V79.724H146.405V76.5H149.257V73.152L152.605 72.16V76.5H156.449V79.724ZM162.647 73.555C162.234 73.9683 161.738 74.175 161.159 74.175C160.581 74.175 160.074 73.9683 159.64 73.555C159.227 73.121 159.02 72.6147 159.02 72.036C159.02 71.4573 159.227 70.9613 159.64 70.548C160.054 70.114 160.56 69.897 161.159 69.897C161.759 69.897 162.265 70.114 162.678 70.548C163.092 70.9613 163.298 71.4573 163.298 72.036C163.298 72.6147 163.081 73.121 162.647 73.555ZM159.485 92V76.5H162.833V92H159.485ZM174.037 92.403C171.763 92.403 169.831 91.6177 168.24 90.047C166.648 88.4763 165.853 86.544 165.853 84.25C165.853 81.956 166.648 80.0237 168.24 78.453C169.831 76.8823 171.763 76.097 174.037 76.097C176.331 76.097 178.263 76.8823 179.834 78.453C181.425 80.0237 182.221 81.956 182.221 84.25C182.221 86.544 181.425 88.4763 179.834 90.047C178.263 91.6177 176.331 92.403 174.037 92.403ZM170.596 87.753C171.526 88.683 172.673 89.148 174.037 89.148C175.401 89.148 176.548 88.683 177.478 87.753C178.408 86.823 178.873 85.6553 178.873 84.25C178.873 82.8447 178.408 81.677 177.478 80.747C176.548 79.817 175.401 79.352 174.037 79.352C172.673 79.352 171.526 79.817 170.596 80.747C169.666 81.677 169.201 82.8447 169.201 84.25C169.201 85.6553 169.666 86.823 170.596 87.753ZM193.401 76.097C195.178 76.097 196.615 76.6653 197.71 77.802C198.805 78.9387 199.353 80.499 199.353 82.483V92H196.005V82.824C196.005 81.6667 195.695 80.778 195.075 80.158C194.455 79.538 193.608 79.228 192.533 79.228C191.355 79.228 190.404 79.6 189.681 80.344C188.958 81.0673 188.596 82.1833 188.596 83.692V92H185.248V76.5H188.596V78.484C189.609 76.8927 191.21 76.097 193.401 76.097Z" fill="white"/>
<path d="M17.1641 153H297.164V279H17.1641V153ZM101.192 202H73.1361V230.056H101.192V202ZM17.1641 307H297.164V433H17.1641V307ZM101.192 356H73.1361V384.056H101.192V356Z" fill="white" fill-opacity="0.5"/>
</g>
<defs>
<clipPath id="clip0_112_2874">
<rect width="321" height="393" rx="20" fill="white"/>
</clipPath>
</defs>
</svg>
