<svg width="1239" height="197" viewBox="0 0 1239 197" fill="none" xmlns="http://www.w3.org/2000/svg">
<path d="M195.522 104.098L190.608 122.405L137.924 108.316C138.531 105.533 138.853 102.643 138.853 99.6787C138.853 95.8087 138.306 92.066 137.288 88.5225L195.522 104.098ZM59.425 88.5928C58.4205 92.1153 57.884 95.8345 57.884 99.6787C57.8841 102.543 58.1833 105.339 58.7512 108.035L1.0188 92.5947L5.93384 74.2871L59.425 88.5928ZM69.5422 70.5391L69.927 70.9229C65.2819 75.5004 61.7402 81.1902 59.7366 87.5605L16.928 44.832L30.3567 31.4277L69.5422 70.5391ZM190.288 73.0996L136.937 87.3682C134.868 80.9045 131.214 75.149 126.431 70.5557L126.615 70.5068L185.373 54.791L190.288 73.0996ZM87.5364 60.7334C81.0469 62.5277 75.2113 65.8927 70.469 70.3955L70.3782 70.0557L54.6331 11.4092L72.9788 6.50293L87.5364 60.7334ZM165.314 30.5596L126.132 69.6699L125.82 69.9814C120.97 65.5134 115.027 62.2112 108.433 60.5273L109.473 59.4902L151.885 17.1562L165.314 30.5596ZM122.995 5.51758L108.637 59.0068L108.24 60.4814C105.081 59.691 101.774 59.2696 98.3684 59.2695C94.9947 59.2695 91.7175 59.6828 88.5842 60.459L104.651 0.612305L122.995 5.51758Z" stroke="#989898"/>
<path d="M179.612 151.859L166.182 165.264L128.027 127.179C132.515 122.358 135.838 116.442 137.548 109.875L179.612 151.859Z" stroke="#989898"/>
<path d="M141.906 185.285L123.562 190.192L109.681 138.486C116.167 136.605 121.98 133.149 126.679 128.56L141.906 185.285Z" stroke="#989898"/>
<path d="M88.053 138.763C91.346 139.626 94.8023 140.087 98.3655 140.087C101.559 140.087 104.666 139.716 107.647 139.018L92.5071 195.415L74.1624 190.508L88.053 138.763Z" stroke="#989898"/>
<path d="M69.4647 127.968C74.0312 132.616 79.714 136.167 86.0809 138.19L44.6591 179.535L31.2303 166.131L69.4647 127.968Z" stroke="#989898"/>
<path d="M59.0773 109.466C60.6941 115.955 63.8831 121.822 68.215 126.645L11.1652 141.902L6.24915 123.594L59.0773 109.466Z" stroke="#989898"/>
<mask id="path-7-outside-1_147_139" maskUnits="userSpaceOnUse" x="283.383" y="28.5134" width="950" height="142" fill="black">
<rect fill="white" x="283.383" y="28.5134" width="950" height="142"/>
<path d="M307.577 144.993H363.336V166.513H285.078V29.5625H307.577V144.993ZM453.083 68.6914H474.213V166.513H453.083V152.427C445.127 163.514 433.714 169.057 418.845 169.057C405.411 169.057 393.933 164.1 384.412 154.188C374.891 144.145 370.13 131.95 370.13 117.602C370.13 103.125 374.891 90.9296 384.412 81.0169C393.933 71.1043 405.411 66.148 418.845 66.148C433.714 66.148 445.127 71.626 453.083 82.5821V68.6914ZM400.064 140.101C405.933 145.971 413.302 148.905 422.171 148.905C431.041 148.905 438.41 145.971 444.279 140.101C450.149 134.102 453.083 126.602 453.083 117.602C453.083 108.603 450.149 101.168 444.279 95.299C438.41 89.2992 431.041 86.2993 422.171 86.2993C413.302 86.2993 405.933 89.2992 400.064 95.299C394.194 101.168 391.26 108.603 391.26 117.602C391.26 126.602 394.194 134.102 400.064 140.101ZM517.245 95.6902C517.245 98.951 519.006 101.56 522.528 103.516C526.18 105.342 530.549 106.972 535.636 108.407C540.853 109.711 546.07 111.277 551.287 113.103C556.505 114.929 560.874 118.059 564.396 122.493C568.048 126.798 569.874 132.276 569.874 138.928C569.874 148.319 566.222 155.688 558.918 161.035C551.744 166.383 542.679 169.057 531.723 169.057C522.071 169.057 513.789 167.035 506.876 162.992C499.963 158.949 494.942 153.34 491.812 146.166L510.006 135.602C513.398 144.993 520.636 149.688 531.723 149.688C542.809 149.688 548.353 146.036 548.353 138.732C548.353 135.602 546.527 133.058 542.875 131.102C539.353 129.145 534.984 127.515 529.767 126.211C524.68 124.776 519.528 123.146 514.311 121.32C509.093 119.494 504.659 116.494 501.007 112.32C497.485 108.016 495.724 102.603 495.724 96.0815C495.724 87.0819 499.116 79.8431 505.898 74.365C512.811 68.887 521.354 66.148 531.527 66.148C539.614 66.148 546.788 67.974 553.048 71.626C559.439 75.1476 564.33 80.1039 567.722 86.495L549.918 96.4728C546.527 89.0383 540.397 85.3211 531.527 85.3211C527.484 85.3211 524.093 86.2341 521.354 88.0601C518.615 89.7557 517.245 92.2991 517.245 95.6902ZM601.502 95.6902C601.502 98.951 603.263 101.56 606.785 103.516C610.437 105.342 614.806 106.972 619.893 108.407C625.11 109.711 630.327 111.277 635.544 113.103C640.761 114.929 645.131 118.059 648.652 122.493C652.304 126.798 654.131 132.276 654.131 138.928C654.131 148.319 650.478 155.688 643.174 161.035C636.001 166.383 626.936 169.057 615.98 169.057C606.328 169.057 598.046 167.035 591.133 162.992C584.22 158.949 579.199 153.34 576.068 146.166L594.263 135.602C597.655 144.993 604.893 149.688 615.98 149.688C627.066 149.688 632.61 146.036 632.61 138.732C632.61 135.602 630.784 133.058 627.132 131.102C623.61 129.145 619.241 127.515 614.023 126.211C608.937 124.776 603.785 123.146 598.568 121.32C593.35 119.494 588.916 116.494 585.264 112.32C581.742 108.016 579.981 102.603 579.981 96.0815C579.981 87.0819 583.373 79.8431 590.155 74.365C597.068 68.887 605.611 66.148 615.784 66.148C623.871 66.148 631.044 67.974 637.305 71.626C643.696 75.1476 648.587 80.1039 651.978 86.495L634.175 96.4728C630.784 89.0383 624.653 85.3211 615.784 85.3211C611.741 85.3211 608.35 86.2341 605.611 88.0601C602.872 89.7557 601.502 92.2991 601.502 95.6902ZM747.696 68.6914H768.825V166.513H747.696V152.427C739.74 163.514 728.327 169.057 713.458 169.057C700.024 169.057 688.546 164.1 679.025 154.188C669.503 144.145 664.743 131.95 664.743 117.602C664.743 103.125 669.503 90.9296 679.025 81.0169C688.546 71.1043 700.024 66.148 713.458 66.148C728.327 66.148 739.74 71.626 747.696 82.5821V68.6914ZM694.676 140.101C700.546 145.971 707.915 148.905 716.784 148.905C725.653 148.905 733.022 145.971 738.892 140.101C744.761 134.102 747.696 126.602 747.696 117.602C747.696 108.603 744.761 101.168 738.892 95.299C733.022 89.2992 725.653 86.2993 716.784 86.2993C707.915 86.2993 700.546 89.2992 694.676 95.299C688.807 101.168 685.872 108.603 685.872 117.602C685.872 126.602 688.807 134.102 694.676 140.101ZM866.233 144.993H921.992V166.513H843.734V29.5625H866.233V144.993ZM950.894 126.602C952.459 134.036 956.046 139.775 961.654 143.819C967.263 147.732 974.11 149.688 982.197 149.688C993.414 149.688 1001.83 145.645 1007.43 137.558L1024.85 147.732C1015.2 161.948 1000.91 169.057 982.001 169.057C966.089 169.057 953.241 164.231 943.459 154.579C933.677 144.797 928.786 132.471 928.786 117.602C928.786 102.994 933.612 90.7991 943.264 81.0169C952.915 71.1043 965.306 66.148 980.436 66.148C994.783 66.148 1006.52 71.1695 1015.65 81.2126C1024.91 91.2556 1029.54 103.451 1029.54 117.798C1029.54 120.015 1029.28 122.95 1028.76 126.602H950.894ZM950.698 109.385H1008.22C1006.78 101.429 1003.46 95.4294 998.24 91.3861C993.153 87.3428 987.153 85.3211 980.24 85.3211C972.414 85.3211 965.893 87.4732 960.676 91.7774C955.459 96.0815 952.133 101.951 950.698 109.385ZM1099.59 66.148C1110.81 66.148 1119.87 69.7348 1126.78 76.9084C1133.7 84.082 1137.15 93.9294 1137.15 106.451V166.513H1116.02V108.603C1116.02 101.299 1114.07 95.6902 1110.15 91.7774C1106.24 87.8645 1100.89 85.908 1094.11 85.908C1086.68 85.908 1080.68 88.2558 1076.11 92.9512C1071.55 97.5163 1069.26 104.559 1069.26 114.081V166.513H1048.13V68.6914H1069.26V81.2126C1075.66 71.1695 1085.76 66.148 1099.59 66.148ZM1178.88 95.6902C1178.88 98.951 1180.64 101.56 1184.16 103.516C1187.82 105.342 1192.19 106.972 1197.27 108.407C1202.49 109.711 1207.71 111.277 1212.92 113.103C1218.14 114.929 1222.51 118.059 1226.03 122.493C1229.68 126.798 1231.51 132.276 1231.51 138.928C1231.51 148.319 1227.86 155.688 1220.55 161.035C1213.38 166.383 1204.32 169.057 1193.36 169.057C1183.71 169.057 1175.43 167.035 1168.51 162.992C1161.6 158.949 1156.58 153.34 1153.45 146.166L1171.64 135.602C1175.03 144.993 1182.27 149.688 1193.36 149.688C1204.45 149.688 1209.99 146.036 1209.99 138.732C1209.99 135.602 1208.16 133.058 1204.51 131.102C1200.99 129.145 1196.62 127.515 1191.4 126.211C1186.32 124.776 1181.16 123.146 1175.95 121.32C1170.73 119.494 1166.3 116.494 1162.64 112.32C1159.12 108.016 1157.36 102.603 1157.36 96.0815C1157.36 87.0819 1160.75 79.8431 1167.53 74.365C1174.45 68.887 1182.99 66.148 1193.16 66.148C1201.25 66.148 1208.42 67.974 1214.68 71.626C1221.08 75.1476 1225.97 80.1039 1229.36 86.495L1211.55 96.4728C1208.16 89.0383 1202.03 85.3211 1193.16 85.3211C1189.12 85.3211 1185.73 86.2341 1182.99 88.0601C1180.25 89.7557 1178.88 92.2991 1178.88 95.6902Z"/>
</mask>
<path d="M307.577 144.993H306.577V145.993H307.577V144.993ZM363.336 144.993H364.336V143.993H363.336V144.993ZM363.336 166.513V167.513H364.336V166.513H363.336ZM285.078 166.513H284.078V167.513H285.078V166.513ZM285.078 29.5625V28.5625H284.078V29.5625H285.078ZM307.577 29.5625H308.577V28.5625H307.577V29.5625ZM307.577 144.993V145.993H363.336V144.993V143.993H307.577V144.993ZM363.336 144.993H362.336V166.513H363.336H364.336V144.993H363.336ZM363.336 166.513V165.513H285.078V166.513V167.513H363.336V166.513ZM285.078 166.513H286.078V29.5625H285.078H284.078V166.513H285.078ZM285.078 29.5625V30.5625H307.577V29.5625V28.5625H285.078V29.5625ZM307.577 29.5625H306.577V144.993H307.577H308.577V29.5625H307.577ZM453.083 68.6914V67.6914H452.083V68.6914H453.083ZM474.213 68.6914H475.213V67.6914H474.213V68.6914ZM474.213 166.513V167.513H475.213V166.513H474.213ZM453.083 166.513H452.083V167.513H453.083V166.513ZM453.083 152.427H454.083V149.318L452.271 151.844L453.083 152.427ZM384.412 154.188L383.686 154.876L383.691 154.881L384.412 154.188ZM384.412 81.0169L385.133 81.7097L384.412 81.0169ZM453.083 82.5821L452.274 83.1697L454.083 85.661V82.5821H453.083ZM400.064 140.101L399.349 140.801L399.357 140.809L400.064 140.101ZM444.279 140.101L444.986 140.809L444.994 140.801L444.279 140.101ZM444.279 95.299L443.564 95.9983L443.572 96.0061L444.279 95.299ZM400.064 95.299L400.771 96.0061L400.778 95.9982L400.064 95.299ZM453.083 68.6914V69.6914H474.213V68.6914V67.6914H453.083V68.6914ZM474.213 68.6914H473.213V166.513H474.213H475.213V68.6914H474.213ZM474.213 166.513V165.513H453.083V166.513V167.513H474.213V166.513ZM453.083 166.513H454.083V152.427H453.083H452.083V166.513H453.083ZM453.083 152.427L452.271 151.844C444.521 162.643 433.426 168.057 418.845 168.057V169.057V170.057C434.003 170.057 445.733 164.385 453.896 153.01L453.083 152.427ZM418.845 169.057V168.057C405.69 168.057 394.471 163.217 385.133 153.495L384.412 154.188L383.691 154.881C393.396 164.984 405.132 170.057 418.845 170.057V169.057ZM384.412 154.188L385.138 153.5C375.8 143.65 371.13 131.704 371.13 117.602H370.13H369.13C369.13 132.195 373.982 144.64 383.686 154.876L384.412 154.188ZM370.13 117.602H371.13C371.13 103.368 375.801 91.4254 385.133 81.7097L384.412 81.0169L383.691 80.3242C373.98 90.4338 369.13 102.882 369.13 117.602H370.13ZM384.412 81.0169L385.133 81.7097C394.471 71.9882 405.69 67.148 418.845 67.148V66.148V65.148C405.132 65.148 393.396 70.2204 383.691 80.3242L384.412 81.0169ZM418.845 66.148V67.148C433.431 67.148 444.526 72.5009 452.274 83.1697L453.083 82.5821L453.892 81.9945C445.728 70.7512 433.998 65.148 418.845 65.148V66.148ZM453.083 82.5821H454.083V68.6914H453.083H452.083V82.5821H453.083ZM400.064 140.101L399.357 140.809C405.427 146.879 413.057 149.905 422.171 149.905V148.905V147.905C413.547 147.905 406.439 145.062 400.771 139.394L400.064 140.101ZM422.171 148.905V149.905C431.286 149.905 438.916 146.879 444.986 140.809L444.279 140.101L443.572 139.394C437.904 145.062 430.796 147.905 422.171 147.905V148.905ZM444.279 140.101L444.994 140.801C451.06 134.6 454.083 126.843 454.083 117.602H453.083H452.083C452.083 126.361 449.237 133.604 443.564 139.402L444.279 140.101ZM453.083 117.602H454.083C454.083 108.362 451.06 100.665 444.986 94.5918L444.279 95.299L443.572 96.0061C449.237 101.671 452.083 108.843 452.083 117.602H453.083ZM444.279 95.299L444.994 94.5997C438.925 88.3958 431.293 85.2993 422.171 85.2993V86.2993V87.2993C430.789 87.2993 437.895 90.2026 443.564 95.9982L444.279 95.299ZM422.171 86.2993V85.2993C413.05 85.2993 405.418 88.3958 399.349 94.5997L400.064 95.299L400.778 95.9982C406.448 90.2026 413.554 87.2993 422.171 87.2993V86.2993ZM400.064 95.299L399.357 94.5918C393.283 100.665 390.26 108.362 390.26 117.602H391.26H392.26C392.26 108.843 395.106 101.671 400.771 96.0061L400.064 95.299ZM391.26 117.602H390.26C390.26 126.843 393.283 134.6 399.349 140.801L400.064 140.101L400.778 139.402C395.106 133.604 392.26 126.361 392.26 117.602H391.26ZM522.528 103.516L522.042 104.39L522.061 104.401L522.081 104.41L522.528 103.516ZM535.636 108.407L535.364 109.37L535.379 109.374L535.393 109.377L535.636 108.407ZM551.287 113.103L551.618 112.159L551.287 113.103ZM564.396 122.493L563.612 123.115L563.623 123.128L563.633 123.14L564.396 122.493ZM558.918 161.035L558.327 160.229L558.32 160.234L558.918 161.035ZM506.876 162.992L507.381 162.129L506.876 162.992ZM491.812 146.166L491.309 145.302L490.538 145.749L490.895 146.566L491.812 146.166ZM510.006 135.602L510.947 135.262L510.54 134.135L509.504 134.737L510.006 135.602ZM542.875 131.102L542.389 131.976L542.396 131.98L542.402 131.983L542.875 131.102ZM529.767 126.211L529.495 127.173L529.509 127.177L529.524 127.181L529.767 126.211ZM514.311 121.32L514.641 120.376L514.311 121.32ZM501.007 112.32L500.233 112.953L500.243 112.966L500.254 112.979L501.007 112.32ZM505.898 74.365L505.277 73.5812L505.27 73.5871L505.898 74.365ZM553.048 71.626L552.544 72.4898L552.555 72.496L552.566 72.5019L553.048 71.626ZM567.722 86.495L568.21 87.3673L569.063 86.8895L568.605 86.0263L567.722 86.495ZM549.918 96.4728L549.008 96.8878L549.459 97.8764L550.407 97.3452L549.918 96.4728ZM521.354 88.0601L521.88 88.9104L521.895 88.9015L521.909 88.8922L521.354 88.0601ZM517.245 95.6902H516.245C516.245 99.4048 518.291 102.306 522.042 104.39L522.528 103.516L523.013 102.642C519.721 100.813 518.245 98.4971 518.245 95.6902H517.245ZM522.528 103.516L522.081 104.41C525.802 106.271 530.234 107.922 535.364 109.37L535.636 108.407L535.907 107.445C530.865 106.022 526.557 104.413 522.975 102.622L522.528 103.516ZM535.636 108.407L535.393 109.377C540.58 110.674 545.768 112.23 550.957 114.046L551.287 113.103L551.618 112.159C546.373 110.323 541.126 108.749 535.878 107.437L535.636 108.407ZM551.287 113.103L550.957 114.046C555.991 115.808 560.205 118.825 563.612 123.115L564.396 122.493L565.179 121.872C561.543 117.293 557.018 114.049 551.618 112.159L551.287 113.103ZM564.396 122.493L563.633 123.14C567.105 127.233 568.874 132.468 568.874 138.928H569.874H570.874C570.874 132.083 568.99 126.363 565.158 121.847L564.396 122.493ZM569.874 138.928H568.874C568.874 148.014 565.362 155.077 558.327 160.229L558.918 161.035L559.508 161.842C567.081 156.298 570.874 148.623 570.874 138.928H569.874ZM558.918 161.035L558.32 160.234C551.355 165.426 542.513 168.057 531.723 168.057V169.057V170.057C542.845 170.057 552.133 167.34 559.515 161.837L558.918 161.035ZM531.723 169.057V168.057C522.212 168.057 514.112 166.066 507.381 162.129L506.876 162.992L506.371 163.855C513.466 168.005 521.93 170.057 531.723 170.057V169.057ZM506.876 162.992L507.381 162.129C500.647 158.19 495.772 152.741 492.728 145.766L491.812 146.166L490.895 146.566C494.112 153.939 499.28 159.707 506.371 163.855L506.876 162.992ZM491.812 146.166L492.314 147.031L510.509 136.466L510.006 135.602L509.504 134.737L491.309 145.302L491.812 146.166ZM510.006 135.602L509.066 135.941C510.824 140.808 513.604 144.521 517.435 147.005C521.257 149.484 526.041 150.688 531.723 150.688V149.688V148.688C526.318 148.688 521.94 147.544 518.523 145.327C515.115 143.117 512.581 139.786 510.947 135.262L510.006 135.602ZM531.723 149.688V150.688C537.344 150.688 541.734 149.768 544.745 147.784C547.83 145.752 549.353 142.68 549.353 138.732H548.353H547.353C547.353 142.088 546.104 144.494 543.645 146.114C541.113 147.782 537.188 148.688 531.723 148.688V149.688ZM548.353 138.732H549.353C549.353 135.113 547.202 132.286 543.347 130.22L542.875 131.102L542.402 131.983C545.851 133.831 547.353 136.09 547.353 138.732H548.353ZM542.875 131.102L543.36 130.228C539.742 128.217 535.285 126.559 530.009 125.241L529.767 126.211L529.524 127.181C534.683 128.471 538.965 130.074 542.389 131.976L542.875 131.102ZM529.767 126.211L530.038 125.248C524.972 123.819 519.84 122.195 514.641 120.376L514.311 121.32L513.98 122.263C519.216 124.096 524.388 125.733 529.495 127.173L529.767 126.211ZM514.311 121.32L514.641 120.376C509.587 118.607 505.298 115.706 501.759 111.661L501.007 112.32L500.254 112.979C504.02 117.282 508.6 120.38 513.98 122.263L514.311 121.32ZM501.007 112.32L501.781 111.687C498.43 107.591 496.724 102.414 496.724 96.0815H495.724H494.724C494.724 102.792 496.541 108.441 500.233 112.953L501.007 112.32ZM495.724 96.0815H496.724C496.724 87.3727 499.988 80.4242 506.526 75.143L505.898 74.365L505.27 73.5871C498.244 79.262 494.724 86.791 494.724 96.0815H495.724ZM505.898 74.365L506.519 75.1488C513.229 69.8318 521.543 67.148 531.527 67.148V66.148V65.148C521.165 65.148 512.393 67.9422 505.277 73.5813L505.898 74.365ZM531.527 66.148V67.148C539.458 67.148 546.454 68.937 552.544 72.4898L553.048 71.626L553.552 70.7622C547.121 67.011 539.77 65.148 531.527 65.148V66.148ZM553.048 71.626L552.566 72.5019C558.788 75.9304 563.539 80.746 566.838 86.9637L567.722 86.495L568.605 86.0263C565.122 79.4619 560.091 74.3648 553.531 70.7502L553.048 71.626ZM567.722 86.495L567.233 85.6226L549.429 95.6005L549.918 96.4728L550.407 97.3452L568.21 87.3673L567.722 86.495ZM549.918 96.4728L550.828 96.0578C549.061 92.1843 546.555 89.2307 543.295 87.254C540.041 85.2804 536.102 84.3211 531.527 84.3211V85.3211V86.3211C535.822 86.3211 539.383 87.2204 542.258 88.9641C545.129 90.7046 547.384 93.3268 549.008 96.8878L549.918 96.4728ZM531.527 85.3211V84.3211C527.332 84.3211 523.737 85.2698 520.799 87.2281L521.354 88.0601L521.909 88.8922C524.449 87.1984 527.636 86.3211 531.527 86.3211V85.3211ZM521.354 88.0601L520.827 87.2099C517.776 89.0991 516.245 91.9749 516.245 95.6902H517.245H518.245C518.245 92.6233 519.454 90.4123 521.88 88.9104L521.354 88.0601ZM606.785 103.516L606.299 104.39L606.318 104.401L606.337 104.41L606.785 103.516ZM619.893 108.407L619.621 109.37L619.636 109.374L619.65 109.377L619.893 108.407ZM635.544 113.103L635.875 112.159L635.544 113.103ZM648.652 122.493L647.869 123.115L647.879 123.128L647.89 123.14L648.652 122.493ZM643.174 161.035L642.584 160.229L642.577 160.234L643.174 161.035ZM591.133 162.992L591.638 162.129L591.133 162.992ZM576.068 146.166L575.566 145.302L574.795 145.749L575.152 146.566L576.068 146.166ZM594.263 135.602L595.204 135.262L594.797 134.135L593.761 134.737L594.263 135.602ZM627.132 131.102L626.646 131.976L626.653 131.98L626.659 131.983L627.132 131.102ZM614.023 126.211L613.752 127.173L613.766 127.177L613.781 127.181L614.023 126.211ZM598.568 121.32L598.898 120.376L598.568 121.32ZM585.264 112.32L584.49 112.953L584.5 112.966L584.511 112.979L585.264 112.32ZM590.155 74.365L589.534 73.5812L589.527 73.5871L590.155 74.365ZM637.305 71.626L636.801 72.4898L636.812 72.496L636.823 72.5019L637.305 71.626ZM651.978 86.495L652.467 87.3673L653.32 86.8895L652.862 86.0263L651.978 86.495ZM634.175 96.4728L633.265 96.8878L633.716 97.8764L634.664 97.3452L634.175 96.4728ZM605.611 88.0601L606.137 88.9104L606.151 88.9015L606.165 88.8922L605.611 88.0601ZM601.502 95.6902H600.502C600.502 99.4048 602.548 102.306 606.299 104.39L606.785 103.516L607.27 102.642C603.978 100.813 602.502 98.4971 602.502 95.6902H601.502ZM606.785 103.516L606.337 104.41C610.059 106.271 614.491 107.922 619.621 109.37L619.893 108.407L620.164 107.445C615.121 106.022 610.814 104.413 607.232 102.622L606.785 103.516ZM619.893 108.407L619.65 109.377C624.837 110.674 630.025 112.23 635.214 114.046L635.544 113.103L635.875 112.159C630.629 110.323 625.383 108.749 620.135 107.437L619.893 108.407ZM635.544 113.103L635.214 114.046C640.248 115.808 644.462 118.825 647.869 123.115L648.652 122.493L649.436 121.872C645.8 117.293 641.275 114.049 635.875 112.159L635.544 113.103ZM648.652 122.493L647.89 123.14C651.362 127.233 653.13 132.468 653.13 138.928H654.13H655.13C655.13 132.083 653.247 126.363 649.415 121.847L648.652 122.493ZM654.13 138.928H653.13C653.13 148.014 649.619 155.077 642.584 160.229L643.174 161.035L643.765 161.842C651.338 156.298 655.13 148.623 655.13 138.928H654.13ZM643.174 161.035L642.577 160.234C635.612 165.426 626.77 168.057 615.98 168.057V169.057V170.057C627.102 170.057 636.39 167.34 643.772 161.837L643.174 161.035ZM615.98 169.057V168.057C606.469 168.057 598.369 166.066 591.638 162.129L591.133 162.992L590.628 163.855C597.723 168.005 606.187 170.057 615.98 170.057V169.057ZM591.133 162.992L591.638 162.129C584.903 158.19 580.029 152.741 576.985 145.766L576.068 146.166L575.152 146.566C578.369 153.939 583.537 159.707 590.628 163.855L591.133 162.992ZM576.068 146.166L576.571 147.031L594.766 136.466L594.263 135.602L593.761 134.737L575.566 145.302L576.068 146.166ZM594.263 135.602L593.323 135.941C595.08 140.808 597.861 144.521 601.692 147.005C605.513 149.484 610.298 150.688 615.98 150.688V149.688V148.688C610.575 148.688 606.197 147.544 602.78 145.327C599.372 143.117 596.838 139.786 595.204 135.262L594.263 135.602ZM615.98 149.688V150.688C621.601 150.688 625.991 149.768 629.002 147.784C632.087 145.752 633.61 142.68 633.61 138.732H632.61H631.61C631.61 142.088 630.361 144.494 627.902 146.114C625.37 147.782 621.445 148.688 615.98 148.688V149.688ZM632.61 138.732H633.61C633.61 135.113 631.459 132.286 627.604 130.22L627.132 131.102L626.659 131.983C630.108 133.831 631.61 136.09 631.61 138.732H632.61ZM627.132 131.102L627.617 130.228C623.999 128.217 619.542 126.559 614.266 125.241L614.023 126.211L613.781 127.181C618.94 128.471 623.221 130.074 626.646 131.976L627.132 131.102ZM614.023 126.211L614.295 125.248C609.229 123.819 604.097 122.195 598.898 120.376L598.568 121.32L598.237 122.263C603.473 124.096 608.645 125.733 613.752 127.173L614.023 126.211ZM598.568 121.32L598.898 120.376C593.844 118.607 589.555 115.706 586.016 111.661L585.264 112.32L584.511 112.979C588.277 117.282 592.856 120.38 598.237 122.263L598.568 121.32ZM585.264 112.32L586.038 111.687C582.687 107.591 580.981 102.414 580.981 96.0815H579.981H578.981C578.981 102.792 580.798 108.441 584.49 112.953L585.264 112.32ZM579.981 96.0815H580.981C580.981 87.3727 584.245 80.4242 590.783 75.143L590.155 74.365L589.527 73.5871C582.5 79.262 578.981 86.791 578.981 96.0815H579.981ZM590.155 74.365L590.776 75.1488C597.486 69.8318 605.8 67.148 615.784 67.148V66.148V65.148C605.422 65.148 596.65 67.9422 589.534 73.5813L590.155 74.365ZM615.784 66.148V67.148C623.715 67.148 630.711 68.937 636.801 72.4898L637.305 71.626L637.809 70.7622C631.378 67.011 624.027 65.148 615.784 65.148V66.148ZM637.305 71.626L636.823 72.5019C643.045 75.9304 647.796 80.746 651.095 86.9637L651.978 86.495L652.862 86.0263C649.379 79.4619 644.348 74.3648 637.788 70.7502L637.305 71.626ZM651.978 86.495L651.49 85.6226L633.686 95.6005L634.175 96.4728L634.664 97.3452L652.467 87.3673L651.978 86.495ZM634.175 96.4728L635.085 96.0578C633.318 92.1843 630.812 89.2307 627.552 87.254C624.298 85.2804 620.359 84.3211 615.784 84.3211V85.3211V86.3211C620.079 86.3211 623.64 87.2204 626.515 88.9641C629.385 90.7046 631.641 93.3268 633.265 96.8878L634.175 96.4728ZM615.784 85.3211V84.3211C611.589 84.3211 607.993 85.2698 605.056 87.2281L605.611 88.0601L606.165 88.8922C608.706 87.1984 611.893 86.3211 615.784 86.3211V85.3211ZM605.611 88.0601L605.084 87.2099C602.033 89.0991 600.502 91.9749 600.502 95.6902H601.502H602.502C602.502 92.6233 603.711 90.4123 606.137 88.9104L605.611 88.0601ZM747.696 68.6914V67.6914H746.696V68.6914H747.696ZM768.825 68.6914H769.825V67.6914H768.825V68.6914ZM768.825 166.513V167.513H769.825V166.513H768.825ZM747.696 166.513H746.696V167.513H747.696V166.513ZM747.696 152.427H748.696V149.318L746.883 151.844L747.696 152.427ZM679.025 154.188L678.299 154.876L678.304 154.881L679.025 154.188ZM679.025 81.0169L679.746 81.7097L679.025 81.0169ZM747.696 82.5821L746.887 83.1697L748.696 85.661V82.5821H747.696ZM694.676 140.101L693.961 140.801L693.969 140.809L694.676 140.101ZM738.892 140.101L739.599 140.809L739.607 140.801L738.892 140.101ZM738.892 95.299L738.177 95.9983L738.185 96.0061L738.892 95.299ZM694.676 95.299L695.383 96.0061L695.391 95.9982L694.676 95.299ZM747.696 68.6914V69.6914H768.825V68.6914V67.6914H747.696V68.6914ZM768.825 68.6914H767.825V166.513H768.825H769.825V68.6914H768.825ZM768.825 166.513V165.513H747.696V166.513V167.513H768.825V166.513ZM747.696 166.513H748.696V152.427H747.696H746.696V166.513H747.696ZM747.696 152.427L746.883 151.844C739.134 162.643 728.039 168.057 713.458 168.057V169.057V170.057C728.616 170.057 740.345 164.385 748.508 153.01L747.696 152.427ZM713.458 169.057V168.057C700.303 168.057 689.084 163.217 679.746 153.495L679.025 154.188L678.304 154.881C688.009 164.984 699.745 170.057 713.458 170.057V169.057ZM679.025 154.188L679.75 153.5C670.412 143.65 665.743 131.704 665.743 117.602H664.743H663.743C663.743 132.195 668.595 144.64 678.299 154.876L679.025 154.188ZM664.743 117.602H665.743C665.743 103.368 670.414 91.4254 679.746 81.7097L679.025 81.0169L678.304 80.3242C668.593 90.4338 663.743 102.882 663.743 117.602H664.743ZM679.025 81.0169L679.746 81.7097C689.084 71.9882 700.303 67.148 713.458 67.148V66.148V65.148C699.745 65.148 688.009 70.2204 678.304 80.3242L679.025 81.0169ZM713.458 66.148V67.148C728.043 67.148 739.139 72.5009 746.887 83.1697L747.696 82.5821L748.505 81.9945C740.34 70.7512 728.611 65.148 713.458 65.148V66.148ZM747.696 82.5821H748.696V68.6914H747.696H746.696V82.5821H747.696ZM694.676 140.101L693.969 140.809C700.04 146.879 707.67 149.905 716.784 149.905V148.905V147.905C708.16 147.905 701.051 145.062 695.383 139.394L694.676 140.101ZM716.784 148.905V149.905C725.898 149.905 733.528 146.879 739.599 140.809L738.892 140.101L738.185 139.394C732.517 145.062 725.408 147.905 716.784 147.905V148.905ZM738.892 140.101L739.607 140.801C745.673 134.6 748.696 126.843 748.696 117.602H747.696H746.696C746.696 126.361 743.849 133.604 738.177 139.402L738.892 140.101ZM747.696 117.602H748.696C748.696 108.362 745.673 100.665 739.599 94.5918L738.892 95.299L738.185 96.0061C743.85 101.671 746.696 108.843 746.696 117.602H747.696ZM738.892 95.299L739.607 94.5997C733.538 88.3958 725.905 85.2993 716.784 85.2993V86.2993V87.2993C725.401 87.2993 732.507 90.2026 738.177 95.9982L738.892 95.299ZM716.784 86.2993V85.2993C707.663 85.2993 700.03 88.3958 693.961 94.5997L694.676 95.299L695.391 95.9982C701.061 90.2026 708.167 87.2993 716.784 87.2993V86.2993ZM694.676 95.299L693.969 94.5918C687.896 100.665 684.872 108.362 684.872 117.602H685.872H686.872C686.872 108.843 689.718 101.671 695.383 96.0061L694.676 95.299ZM685.872 117.602H684.872C684.872 126.843 687.895 134.6 693.961 140.801L694.676 140.101L695.391 139.402C689.719 133.604 686.872 126.361 686.872 117.602H685.872ZM866.233 144.993H865.233V145.993H866.233V144.993ZM921.992 144.993H922.992V143.993H921.992V144.993ZM921.992 166.513V167.513H922.992V166.513H921.992ZM843.734 166.513H842.734V167.513H843.734V166.513ZM843.734 29.5625V28.5625H842.734V29.5625H843.734ZM866.233 29.5625H867.233V28.5625H866.233V29.5625ZM866.233 144.993V145.993H921.992V144.993V143.993H866.233V144.993ZM921.992 144.993H920.992V166.513H921.992H922.992V144.993H921.992ZM921.992 166.513V165.513H843.734V166.513V167.513H921.992V166.513ZM843.734 166.513H844.734V29.5625H843.734H842.734V166.513H843.734ZM843.734 29.5625V30.5625H866.233V29.5625V28.5625H843.734V29.5625ZM866.233 29.5625H865.233V144.993H866.233H867.233V29.5625H866.233ZM950.894 126.602V125.602H949.661L949.915 126.808L950.894 126.602ZM961.654 143.819L961.069 144.63L961.076 144.634L961.082 144.639L961.654 143.819ZM1007.43 137.558L1007.94 136.695L1007.14 136.228L1006.61 136.988L1007.43 137.558ZM1024.85 147.732L1025.67 148.293L1026.28 147.408L1025.35 146.868L1024.85 147.732ZM943.459 154.579L942.752 155.286L942.757 155.291L943.459 154.579ZM943.263 81.0169L943.975 81.7193L943.98 81.7146L943.263 81.0169ZM1015.65 81.2126L1014.91 81.8853L1014.92 81.8905L1015.65 81.2126ZM1028.76 126.602V127.602H1029.63L1029.75 126.743L1028.76 126.602ZM950.698 109.385L949.716 109.196L949.487 110.385H950.698V109.385ZM1008.22 109.385V110.385H1009.41L1009.2 109.208L1008.22 109.385ZM998.24 91.3861L997.617 92.169L997.627 92.1765L998.24 91.3861ZM960.676 91.7774L960.039 91.006L960.676 91.7774ZM950.894 126.602L949.915 126.808C951.526 134.46 955.238 140.426 961.069 144.63L961.654 143.819L962.239 143.008C956.853 139.125 953.392 133.613 951.872 126.396L950.894 126.602ZM961.654 143.819L961.082 144.639C966.887 148.689 973.944 150.688 982.197 150.688V149.688V148.688C974.276 148.688 967.638 146.774 962.226 142.999L961.654 143.819ZM982.197 149.688V150.688C993.688 150.688 1002.43 146.525 1008.26 138.128L1007.43 137.558L1006.61 136.988C1001.22 144.765 993.139 148.688 982.197 148.688V149.688ZM1007.43 137.558L1006.93 138.422L1024.34 148.595L1024.85 147.732L1025.35 146.868L1007.94 136.695L1007.43 137.558ZM1024.85 147.732L1024.02 147.17C1014.58 161.082 1000.62 168.057 982.001 168.057V169.057V170.057C1001.21 170.057 1015.82 162.815 1025.67 148.293L1024.85 147.732ZM982.001 169.057V168.057C966.307 168.057 953.727 163.305 944.161 153.867L943.459 154.579L942.757 155.291C952.756 165.157 965.871 170.057 982.001 170.057V169.057ZM943.459 154.579L944.166 153.872C934.587 144.292 929.786 132.228 929.786 117.602H928.786H927.786C927.786 132.715 932.767 145.302 942.752 155.286L943.459 154.579ZM928.786 117.602H929.786C929.786 103.239 934.521 91.3017 943.975 81.7193L943.263 81.0169L942.552 80.3146C932.703 90.2966 927.786 102.75 927.786 117.602H928.786ZM943.263 81.0169L943.98 81.7146C953.425 72.0144 965.548 67.148 980.436 67.148V66.148V65.148C965.064 65.148 952.406 70.1942 942.547 80.3193L943.263 81.0169ZM980.436 66.148V67.148C994.52 67.148 1005.98 72.0637 1014.91 81.8852L1015.65 81.2126L1016.39 80.5399C1007.06 70.2753 995.047 65.148 980.436 65.148V66.148ZM1015.65 81.2126L1014.92 81.8905C1024 91.7389 1028.54 103.688 1028.54 117.798H1029.54H1030.54C1030.54 103.213 1025.83 90.7724 1016.39 80.5347L1015.65 81.2126ZM1029.54 117.798H1028.54C1028.54 119.947 1028.29 122.829 1027.77 126.461L1028.76 126.602L1029.75 126.743C1030.27 123.071 1030.54 120.083 1030.54 117.798H1029.54ZM1028.76 126.602V125.602H950.894V126.602V127.602H1028.76V126.602ZM950.698 109.385V110.385H1008.22V109.385V108.385H950.698V109.385ZM1008.22 109.385L1009.2 109.208C1007.73 101.066 1004.31 94.8226 998.852 90.5957L998.24 91.3861L997.627 92.1765C1002.61 96.0362 1005.83 101.793 1007.23 109.563L1008.22 109.385ZM998.24 91.3861L998.862 90.6032C993.586 86.41 987.364 84.3211 980.24 84.3211V85.3211V86.3211C986.943 86.3211 992.719 88.2755 997.617 92.1689L998.24 91.3861ZM980.24 85.3211V84.3211C972.221 84.3211 965.463 86.5313 960.039 91.006L960.676 91.7774L961.312 92.5487C966.323 88.4151 972.608 86.3211 980.24 86.3211V85.3211ZM960.676 91.7774L960.039 91.006C954.621 95.4758 951.189 101.562 949.716 109.196L950.698 109.385L951.68 109.575C953.076 102.34 956.296 96.6872 961.312 92.5487L960.676 91.7774ZM1126.78 76.9084L1127.5 76.2145L1126.78 76.9084ZM1137.15 166.513V167.513H1138.15V166.513H1137.15ZM1116.02 166.513H1115.02V167.513H1116.02V166.513ZM1076.11 92.9512L1076.82 93.6584L1076.83 93.6483L1076.11 92.9512ZM1069.26 166.513V167.513H1070.26V166.513H1069.26ZM1048.13 166.513H1047.13V167.513H1048.13V166.513ZM1048.13 68.6914V67.6914H1047.13V68.6914H1048.13ZM1069.26 68.6914H1070.26V67.6914H1069.26V68.6914ZM1069.26 81.2126H1068.26V84.6466L1070.11 81.7495L1069.26 81.2126ZM1099.59 66.148V67.148C1110.57 67.148 1119.36 70.6498 1126.06 77.6023L1126.78 76.9084L1127.5 76.2145C1120.38 68.8198 1111.04 65.148 1099.59 65.148V66.148ZM1126.78 76.9084L1126.06 77.6023C1132.75 84.5448 1136.15 94.1186 1136.15 106.451H1137.15H1138.15C1138.15 93.7403 1134.64 83.6193 1127.5 76.2145L1126.78 76.9084ZM1137.15 106.451H1136.15V166.513H1137.15H1138.15V106.451H1137.15ZM1137.15 166.513V165.513H1116.02V166.513V167.513H1137.15V166.513ZM1116.02 166.513H1117.02V108.603H1116.02H1115.02V166.513H1116.02ZM1116.02 108.603H1117.02C1117.02 101.121 1115.02 95.2249 1110.86 91.0703L1110.15 91.7774L1109.45 92.4845C1113.12 96.1556 1115.02 101.476 1115.02 108.603H1116.02ZM1110.15 91.7774L1110.86 91.0703C1106.72 86.9292 1101.1 84.908 1094.11 84.908V85.908V86.908C1100.69 86.908 1105.76 88.7998 1109.45 92.4845L1110.15 91.7774ZM1094.11 85.908V84.908C1086.45 84.908 1080.17 87.3381 1075.4 92.2541L1076.11 92.9512L1076.83 93.6483C1081.18 89.1734 1086.91 86.908 1094.11 86.908V85.908ZM1076.11 92.9512L1075.4 92.2441C1070.58 97.0698 1068.26 104.42 1068.26 114.081H1069.26H1070.26C1070.26 104.699 1072.51 97.9627 1076.82 93.6583L1076.11 92.9512ZM1069.26 114.081H1068.26V166.513H1069.26H1070.26V114.081H1069.26ZM1069.26 166.513V165.513H1048.13V166.513V167.513H1069.26V166.513ZM1048.13 166.513H1049.13V68.6914H1048.13H1047.13V166.513H1048.13ZM1048.13 68.6914V69.6914H1069.26V68.6914V67.6914H1048.13V68.6914ZM1069.26 68.6914H1068.26V81.2126H1069.26H1070.26V68.6914H1069.26ZM1069.26 81.2126L1070.11 81.7495C1076.28 72.0454 1086.04 67.148 1099.59 67.148V66.148V65.148C1085.49 65.148 1075.03 70.2936 1068.42 80.6757L1069.26 81.2126ZM1184.16 103.516L1183.68 104.39L1183.7 104.401L1183.72 104.41L1184.16 103.516ZM1197.27 108.407L1197 109.37L1197.02 109.374L1197.03 109.377L1197.27 108.407ZM1212.92 113.103L1213.25 112.159L1212.92 113.103ZM1226.03 122.493L1225.25 123.115L1225.26 123.128L1225.27 123.14L1226.03 122.493ZM1220.55 161.035L1219.96 160.229L1219.96 160.234L1220.55 161.035ZM1168.51 162.992L1169.02 162.129L1168.51 162.992ZM1153.45 146.166L1152.95 145.302L1152.17 145.749L1152.53 146.566L1153.45 146.166ZM1171.64 135.602L1172.58 135.262L1172.18 134.135L1171.14 134.737L1171.64 135.602ZM1204.51 131.102L1204.03 131.976L1204.03 131.98L1204.04 131.983L1204.51 131.102ZM1191.4 126.211L1191.13 127.173L1191.15 127.177L1191.16 127.181L1191.4 126.211ZM1175.95 121.32L1176.28 120.376L1175.95 121.32ZM1162.64 112.32L1161.87 112.953L1161.88 112.966L1161.89 112.979L1162.64 112.32ZM1167.53 74.365L1166.91 73.5812L1166.91 73.5871L1167.53 74.365ZM1214.68 71.626L1214.18 72.4898L1214.19 72.496L1214.2 72.5019L1214.68 71.626ZM1229.36 86.495L1229.85 87.3673L1230.7 86.8895L1230.24 86.0263L1229.36 86.495ZM1211.55 96.4728L1210.64 96.8878L1211.1 97.8764L1212.04 97.3452L1211.55 96.4728ZM1182.99 88.0601L1183.52 88.9104L1183.53 88.9015L1183.54 88.8922L1182.99 88.0601ZM1178.88 95.6902H1177.88C1177.88 99.4048 1179.93 102.306 1183.68 104.39L1184.16 103.516L1184.65 102.642C1181.36 100.813 1179.88 98.4971 1179.88 95.6902H1178.88ZM1184.16 103.516L1183.72 104.41C1187.44 106.271 1191.87 107.922 1197 109.37L1197.27 108.407L1197.54 107.445C1192.5 106.022 1188.19 104.413 1184.61 102.622L1184.16 103.516ZM1197.27 108.407L1197.03 109.377C1202.22 110.674 1207.4 112.23 1212.59 114.046L1212.92 113.103L1213.25 112.159C1208.01 110.323 1202.76 108.749 1197.51 107.437L1197.27 108.407ZM1212.92 113.103L1212.59 114.046C1217.63 115.808 1221.84 118.825 1225.25 123.115L1226.03 122.493L1226.82 121.872C1223.18 117.293 1218.65 114.049 1213.25 112.159L1212.92 113.103ZM1226.03 122.493L1225.27 123.14C1228.74 127.233 1230.51 132.468 1230.51 138.928H1231.51H1232.51C1232.51 132.083 1230.63 126.363 1226.79 121.847L1226.03 122.493ZM1231.51 138.928H1230.51C1230.51 148.014 1227 155.077 1219.96 160.229L1220.55 161.035L1221.14 161.842C1228.72 156.298 1232.51 148.623 1232.51 138.928H1231.51ZM1220.55 161.035L1219.96 160.234C1212.99 165.426 1204.15 168.057 1193.36 168.057V169.057V170.057C1204.48 170.057 1213.77 167.34 1221.15 161.837L1220.55 161.035ZM1193.36 169.057V168.057C1183.85 168.057 1175.75 166.066 1169.02 162.129L1168.51 162.992L1168.01 163.855C1175.1 168.005 1183.57 170.057 1193.36 170.057V169.057ZM1168.51 162.992L1169.02 162.129C1162.28 158.19 1157.41 152.741 1154.36 145.766L1153.45 146.166L1152.53 146.566C1155.75 153.939 1160.92 159.707 1168.01 163.855L1168.51 162.992ZM1153.45 146.166L1153.95 147.031L1172.15 136.466L1171.64 135.602L1171.14 134.737L1152.95 145.302L1153.45 146.166ZM1171.64 135.602L1170.7 135.941C1172.46 140.808 1175.24 144.521 1179.07 147.005C1182.89 149.484 1187.68 150.688 1193.36 150.688V149.688V148.688C1187.95 148.688 1183.58 147.544 1180.16 145.327C1176.75 143.117 1174.22 139.786 1172.58 135.262L1171.64 135.602ZM1193.36 149.688V150.688C1198.98 150.688 1203.37 149.768 1206.38 147.784C1209.47 145.752 1210.99 142.68 1210.99 138.732H1209.99H1208.99C1208.99 142.088 1207.74 144.494 1205.28 146.114C1202.75 147.782 1198.82 148.688 1193.36 148.688V149.688ZM1209.99 138.732H1210.99C1210.99 135.113 1208.84 132.286 1204.98 130.22L1204.51 131.102L1204.04 131.983C1207.49 133.831 1208.99 136.09 1208.99 138.732H1209.99ZM1204.51 131.102L1205 130.228C1201.38 128.217 1196.92 126.559 1191.65 125.241L1191.4 126.211L1191.16 127.181C1196.32 128.471 1200.6 130.074 1204.03 131.976L1204.51 131.102ZM1191.4 126.211L1191.67 125.248C1186.61 123.819 1181.48 122.195 1176.28 120.376L1175.95 121.32L1175.62 122.263C1180.85 124.096 1186.02 125.733 1191.13 127.173L1191.4 126.211ZM1175.95 121.32L1176.28 120.376C1171.22 118.607 1166.93 115.706 1163.4 111.661L1162.64 112.32L1161.89 112.979C1165.66 117.282 1170.24 120.38 1175.62 122.263L1175.95 121.32ZM1162.64 112.32L1163.42 111.687C1160.07 107.591 1158.36 102.414 1158.36 96.0815H1157.36H1156.36C1156.36 102.792 1158.18 108.441 1161.87 112.953L1162.64 112.32ZM1157.36 96.0815H1158.36C1158.36 87.3727 1161.62 80.4242 1168.16 75.143L1167.53 74.365L1166.91 73.5871C1159.88 79.262 1156.36 86.791 1156.36 96.0815H1157.36ZM1167.53 74.365L1168.16 75.1488C1174.87 69.8318 1183.18 67.148 1193.16 67.148V66.148V65.148C1182.8 65.148 1174.03 67.9422 1166.91 73.5813L1167.53 74.365ZM1193.16 66.148V67.148C1201.09 67.148 1208.09 68.937 1214.18 72.4898L1214.68 71.626L1215.19 70.7622C1208.76 67.011 1201.41 65.148 1193.16 65.148V66.148ZM1214.68 71.626L1214.2 72.5019C1220.42 75.9304 1225.18 80.746 1228.47 86.9637L1229.36 86.495L1230.24 86.0263C1226.76 79.4619 1221.73 74.3648 1215.17 70.7502L1214.68 71.626ZM1229.36 86.495L1228.87 85.6226L1211.07 95.6005L1211.55 96.4728L1212.04 97.3452L1229.85 87.3673L1229.36 86.495ZM1211.55 96.4728L1212.46 96.0578C1210.7 92.1843 1208.19 89.2307 1204.93 87.254C1201.68 85.2804 1197.74 84.3211 1193.16 84.3211V85.3211V86.3211C1197.46 86.3211 1201.02 87.2204 1203.89 88.9641C1206.77 90.7046 1209.02 93.3268 1210.64 96.8878L1211.55 96.4728ZM1193.16 85.3211V84.3211C1188.97 84.3211 1185.37 85.2698 1182.44 87.2281L1182.99 88.0601L1183.54 88.8922C1186.09 87.1984 1189.27 86.3211 1193.16 86.3211V85.3211ZM1182.99 88.0601L1182.46 87.2099C1179.41 89.0991 1177.88 91.9749 1177.88 95.6902H1178.88H1179.88C1179.88 92.6233 1181.09 90.4123 1183.52 88.9104L1182.99 88.0601Z" fill="#989898" mask="url(#path-7-outside-1_147_139)"/>
</svg>
