<svg width="20" height="20" viewBox="0 0 20 20" fill="none" xmlns="http://www.w3.org/2000/svg">
<path d="M6.67505 8.47225L10.111 5.0362C11.0485 4.09882 11.5171 3.63012 12.0344 3.25262C13.0956 2.47808 14.3265 1.96823 15.6246 1.76548C16.2574 1.66667 16.9202 1.66667 18.2459 1.66667C18.3151 1.66667 18.3417 1.69843 18.3417 1.76253C18.3417 3.0882 18.3417 3.75104 18.2429 4.38372C18.0401 5.68182 17.5303 6.91273 16.7558 7.97398C16.3783 8.49125 15.9095 8.95992 14.9722 9.89733L11.5361 13.3333" stroke="white" stroke-width="1.25" stroke-linecap="round" stroke-linejoin="round"/>
<path d="M8.62588 6.74865C7.20678 6.74865 5.4232 6.44804 4.0953 6.99807C3.12231 7.4011 2.40633 8.33433 1.67505 9.06558L4.43002 10.2462C5.16012 10.5592 4.71381 11.4805 4.59294 12.0848C4.45826 12.7582 4.46577 12.7831 4.95137 13.2687L6.7397 15.057C7.2253 15.5426 7.25012 15.5502 7.92352 15.4154C8.52788 15.2946 9.44922 14.8482 9.76205 15.5783L10.9428 18.3333C11.674 17.6021 12.6073 16.8861 13.0103 15.9131C13.5604 14.5852 13.2597 12.8016 13.2597 11.3825" stroke="white" stroke-width="1.25" stroke-linejoin="round"/>
<path d="M10.0084 16.6667L9.17505 17.5" stroke="white" stroke-width="1.25" stroke-linecap="round" stroke-linejoin="round"/>
<path d="M3.34163 10L2.5083 10.8333" stroke="white" stroke-width="1.25" stroke-linecap="round" stroke-linejoin="round"/>
<path d="M12.5083 3.39997C13.5083 3.54997 14.5583 3.94997 15.1428 4.54997C15.8896 5.21009 16.4083 6.09997 16.6083 7.49997" stroke="white" stroke-width="1.25" stroke-linecap="square"/>
<path d="M14.9583 5.05005L13.7583 6.25005" stroke="white" stroke-width="1.25" stroke-linecap="round"/>
</svg>
